<svg width="338" height="44" fill="none" xmlns="http://www.w3.org/2000/svg"><path fill-rule="evenodd" clip-rule="evenodd" d="M219.951.358c-.604.601-.426 43.642.18 43.642.349 0 .538-7.69.538-22 0-12.1-.081-22-.179-22-.099 0-.342.161-.539.358zm-82.168 21.374V37.56h2.903c1.955 0 2.995-.239 3.185-.732.155-.403.268-4.877.253-9.943-.017-5.066.065-9.305.182-9.42.115-.117 4.205 4.463 9.088 10.175l8.878 10.385 2.288.036 2.287.036V6.439h-5.898l-.146 10.48-.145 10.479-9.15-10.715-9.15-10.715-2.287-.033-2.288-.033v15.83zM0 22v15.561h5.92V23.5h4.844l4.236-1 .608-.768v-2.415H5.92v-7.512h10.227V6.439H0V22zm32.293-.028v15.589h15.07v-5.366h-9.13l-.144-12.744-.145-12.744-2.825-.162-2.826-.162v15.59zm30.14-3.842c0 11.06.066 11.82 1.211 14.079.706 1.39 2.18 3.057 3.532 3.994 1.957 1.356 2.943 1.64 6.28 1.808 4.624.233 7.194-.476 9.71-2.678 3.253-2.848 3.75-5.181 3.753-17.626l.003-11h-5.92l-.272 11.269c-.15 6.197-.46 11.643-.69 12.101-.704 1.403-3.394 2.655-5.706 2.655-1.665 0-2.62-.379-3.954-1.565l-1.757-1.565-.165-11.581-.164-11.582h-5.86V18.13zM104.414 22v15.561h17.282l-.164-2.549-.164-2.549-5.382-.076-5.382-.077-.158-4.082-.157-4.082h10.81V18.78h-10.765v-6.975h11.303V6.439h-17.223V22zm76.965-12.878v2.683h6.459V37.56h6.458V11.805h6.459V6.439h-19.376v2.683z" fill="#FDF5F5"/><path fill-rule="evenodd" clip-rule="evenodd" d="M243.975 17.872c-1.165.73-1.935 1.796-2.39 3.31-.963 3.204-.017 4.63 4.514 6.806 3.204 1.538 3.633 1.922 3.633 3.246 0 .826-.29 1.792-.646 2.147-.978.974-3.89.77-5.352-.375-1.076-.844-1.457-.903-2.225-.343-1.241.905-1.169 1.484.367 2.922 2.648 2.481 7.378 2.5 10.019.04 1.337-1.245 1.605-1.912 1.605-3.997 0-3.532-.702-4.477-4.647-6.26-3.752-1.696-4.376-2.453-3.449-4.18.725-1.351 3.526-1.52 4.885-.293.828.747.993.699 1.795-.522.849-1.293.831-1.378-.473-2.23-2.158-1.41-5.621-1.533-7.636-.271zm84.747-.209c-1.664.935-3.101 3.351-3.101 5.215 0 2.065 1.562 3.656 5.18 5.274 3.05 1.365 3.431 1.704 3.431 3.06 0 .838-.29 1.814-.646 2.169-.977.974-3.89.771-5.348-.373-1.24-.972-1.346-.975-2.465-.072l-1.17.944 1.525 1.457c4.41 4.212 11.872 1.797 11.872-3.84 0-3.393-.733-4.36-4.647-6.13-3.752-1.695-4.376-2.452-3.449-4.179.725-1.351 3.526-1.52 4.885-.293.828.747.993.699 1.795-.522.849-1.293.831-1.378-.473-2.23-1.913-1.25-5.592-1.489-7.389-.48zm-68.361.041c-.173.173-.343 4.64-.378 9.927l-.064 9.613h3.807v-4.261c0-2.344.197-4.383.439-4.532.242-.149 1.998 1.756 3.902 4.232l3.463 4.503 2.562.029 2.562.029-4.311-5.19c-2.371-2.854-4.311-5.38-4.311-5.614 0-.234 1.397-1.943 3.105-3.798 5.003-5.435 4.92-5.252 2.378-5.252-2.05 0-2.389.242-5.582 3.985-1.87 2.19-3.581 4.001-3.804 4.024-.222.022-.403-1.77-.403-3.984V17.39h-1.525c-.839 0-1.667.141-1.84.314zm22.127-.06c-.141.14-.214 4.548-.161 9.793l.094 9.539 1.685.168 1.687.168V17.391h-1.525c-.839 0-1.64.114-1.78.254zm11.736.149c-.133.221-.267 4.688-.296 9.927l-.052 9.524h10.216v-3.22h-6.459V17.39h-1.582c-.871 0-1.693.181-1.827.403zm15.603 0c-.137.221-.212 4.628-.167 9.792l.083 9.39 4.979.155 4.978.154v-3.26h-6.458V17.39h-1.583c-.871 0-1.695.181-1.832.403z" fill="#F71102"/><path fill="#F71102" d="M0 19h16v5H0z"/></svg>