<svg width="338" height="39" fill="none" xmlns="http://www.w3.org/2000/svg"><path fill-rule="evenodd" clip-rule="evenodd" d="M219.951 1.033c-.604.512-.426 37.125.18 37.125.349 0 .538-6.542.538-18.715 0-10.293-.081-18.714-.179-18.714-.099 0-.342.136-.539.304zm-82.168 18.182v13.466h2.903c1.955 0 2.995-.203 3.185-.623.155-.343.268-4.149.253-8.458-.017-4.31.065-7.916.182-8.014.115-.099 4.205 3.797 9.088 8.656l8.878 8.835 2.288.03 2.287.03V6.206h-5.898l-.146 8.915-.145 8.914-9.15-9.115-9.15-9.114-2.287-.029-2.288-.027v13.465zM0 19.443v13.238h5.92V20.719h4.844L15 19.87l.608-.654v-2.054H5.92v-6.39h10.227V6.206H0v13.237zm32.293-.023v13.26h15.07v-4.564h-9.13l-.144-10.84-.145-10.842-2.825-.138-2.826-.138V19.42zm30.14-3.269c0 9.408.066 10.056 1.211 11.977.706 1.183 2.18 2.6 3.532 3.398 1.957 1.153 2.943 1.395 6.28 1.538 4.624.198 7.194-.406 9.71-2.279 3.253-2.422 3.75-4.407 3.753-14.993l.003-9.358h-5.92l-.272 9.586c-.15 5.272-.46 9.905-.69 10.294-.704 1.194-3.394 2.259-5.706 2.259-1.665 0-2.621-.322-3.954-1.331l-1.757-1.332-.165-9.852-.164-9.852h-5.86v9.945zm41.981 3.292v13.238h17.282l-.164-2.168-.164-2.169-5.382-.065-5.383-.065-.157-3.473-.157-3.472h10.81v-4.564h-10.765V10.77h11.303V6.206h-17.223v13.237zm76.965-10.955v2.283h6.459v21.91h6.458V10.77h6.459V6.206h-19.376v2.282z" fill="#222F3B"/><path fill-rule="evenodd" clip-rule="evenodd" d="M243.975 15.931c-1.165.622-1.935 1.528-2.39 2.816-.963 2.726-.017 3.94 4.514 5.79 3.204 1.309 3.633 1.635 3.633 2.762 0 .703-.29 1.524-.646 1.826-.978.829-3.89.655-5.352-.32-1.076-.717-1.457-.767-2.225-.291-1.241.77-1.169 1.262.367 2.486 2.648 2.11 7.378 2.126 10.019.034 1.337-1.06 1.605-1.627 1.605-3.4 0-3.005-.702-3.809-4.647-5.326-3.752-1.443-4.376-2.086-3.449-3.555.725-1.15 3.526-1.293 4.885-.25.828.636.993.595 1.795-.444.849-1.1.831-1.172-.473-1.897-2.158-1.2-5.621-1.304-7.636-.23zm84.747-.177c-1.664.795-3.101 2.85-3.101 4.437 0 1.756 1.562 3.11 5.18 4.486 3.05 1.16 3.431 1.45 3.431 2.602 0 .714-.29 1.544-.646 1.846-.977.828-3.89.656-5.348-.317-1.24-.827-1.346-.83-2.465-.061l-1.17.802 1.525 1.24C330.538 34.37 338 32.318 338 27.52c0-2.885-.733-3.708-4.647-5.213-3.752-1.443-4.376-2.086-3.449-3.555.725-1.15 3.526-1.293 4.885-.25.828.636.993.595 1.795-.444.85-1.1.831-1.172-.473-1.897-1.913-1.063-5.592-1.266-7.389-.408zm-68.361.035c-.173.147-.343 3.947-.378 8.444l-.064 8.178h3.807v-3.625c0-1.994.197-3.728.439-3.855.242-.127 1.998 1.493 3.902 3.6l3.463 3.83 2.562.025 2.562.025-4.311-4.415c-2.371-2.428-4.311-4.577-4.311-4.776 0-.199 1.397-1.653 3.105-3.23 5.003-4.624 4.92-4.468 2.378-4.468-2.05 0-2.389.206-5.582 3.39-1.87 1.863-3.581 3.404-3.804 3.423-.222.018-.403-1.507-.403-3.39v-3.423h-1.525c-.839 0-1.667.12-1.84.267zm22.127-.05c-.141.118-.214 3.867-.161 8.33l.094 8.114 1.685.143 1.687.143V15.522h-1.525c-.839 0-1.64.097-1.78.216zm11.736.125c-.133.189-.267 3.988-.296 8.445l-.052 8.102h10.216v-2.739h-6.459v-14.15h-1.582c-.871 0-1.693.154-1.827.342zm15.603 0c-.137.189-.212 3.937-.167 8.33l.083 7.989 4.979.131 4.978.131v-2.773h-6.458v-14.15h-1.583c-.871 0-1.695.154-1.832.342z" fill="#FDE61B"/><path fill="#FDE61B" d="M0 26h16v5H0z"/></svg>