<svg width="338" height="44" viewBox="0 0 338 44" fill="none" xmlns="http://www.w3.org/2000/svg">
<path fill-rule="evenodd" clip-rule="evenodd" d="M219.951 0.357902C219.347 0.959415 219.525 44 220.131 44C220.48 44 220.669 36.3091 220.669 22C220.669 9.9 220.588 0 220.49 0C220.391 0 220.148 0.160976 219.951 0.357902ZM137.783 21.7317V37.561H140.686C142.641 37.561 143.681 37.3222 143.871 36.8291C144.026 36.4261 144.139 31.952 144.124 26.8861C144.107 21.8202 144.189 17.5807 144.306 17.4653C144.421 17.3494 148.511 21.9286 153.394 27.6406L162.272 38.0262L164.56 38.0616L166.847 38.0976V22.2683V6.43902H163.898H160.949L160.803 16.9185L160.658 27.3975L151.508 16.683L142.358 5.96844L140.071 5.93517L137.783 5.90244V21.7317ZM0 22V37.561H2.96019H5.92038V30.8537V23.5H10.7643L15 22.5L15.6083 21.7317V19.3171H10.7643H5.92038V15.561V11.8049H11.0334H16.1465V9.12195V6.43902H8.07325H0V22ZM32.293 21.9721V37.561H39.828H47.3631V34.8781V32.1951H42.7979H38.2327L38.0885 19.4512L37.9443 6.70732L35.1186 6.54527L32.293 6.38268V21.9721ZM62.4331 18.1301C62.4331 29.1892 62.4988 29.9506 63.6441 32.2085C64.3497 33.5994 65.8233 35.2665 67.1764 36.2034C69.1328 37.5594 70.1194 37.8432 73.4558 38.0112C78.0796 38.244 80.6501 37.5347 83.1658 35.3331C86.4187 32.4849 86.916 30.1518 86.9193 17.7073L86.922 6.70732H83.9618H81.0016L80.7303 17.9756C80.5807 24.1732 80.2707 29.619 80.0403 30.0772C79.3363 31.4804 76.6458 32.7317 74.3336 32.7317C72.6689 32.7317 71.7131 32.3534 70.3804 31.167L68.6226 29.6023L68.4585 18.0207L68.2943 6.43902H65.3637H62.4331V18.1301ZM104.414 22V37.561H113.055H121.696L121.532 35.0122L121.368 32.4634L115.986 32.3867L110.604 32.31L110.446 28.2281L110.289 24.1463H115.694H121.099V21.4634V18.7805H115.717H110.334V15.2927V11.8049H115.986H121.637V9.12195V6.43902H113.025H104.414V22ZM181.379 9.12195V11.8049H184.608H187.838V24.6829V37.561H191.067H194.296V24.6829V11.8049H197.525H200.755V9.12195V6.43902H191.067H181.379V9.12195Z" fill="#FDF5F5"/>
<path fill-rule="evenodd" clip-rule="evenodd" d="M243.975 17.8716C242.81 18.6019 242.04 19.6676 241.585 21.1813C240.622 24.3863 241.568 25.8126 246.099 27.9879C249.303 29.5263 249.732 29.9099 249.732 31.2342C249.732 32.0605 249.442 33.0264 249.086 33.3806C248.108 34.3555 245.196 34.1516 243.734 33.006C242.658 32.162 242.277 32.1029 241.509 32.6626C240.268 33.5678 240.34 34.1468 241.876 35.5854C244.524 38.066 249.254 38.0843 251.895 35.6251C253.232 34.3797 253.5 33.7132 253.5 31.6275C253.5 28.0963 252.798 27.1508 248.853 25.3677C245.101 23.6716 244.477 22.915 245.404 21.1883C246.129 19.8366 248.93 19.6686 250.289 20.8953C251.117 21.6417 251.282 21.5939 252.084 20.3732C252.933 19.0805 252.915 18.9947 251.611 18.1426C249.453 16.733 245.99 16.6101 243.975 17.8716ZM328.722 17.6634C327.058 18.5982 325.621 21.0144 325.621 22.8785C325.621 24.9433 327.183 26.5337 330.801 28.1521C333.851 29.5166 334.232 29.8563 334.232 31.2117C334.232 32.0504 333.942 33.0264 333.586 33.3806C332.609 34.355 329.696 34.1522 328.238 33.0082C326.998 32.0364 326.892 32.0332 325.773 32.9363L324.603 33.8801L326.128 35.3369C330.538 39.5486 338 37.1345 338 31.4961C338 28.1038 337.267 27.1368 333.353 25.3677C329.601 23.6716 328.977 22.915 329.904 21.1883C330.629 19.8366 333.43 19.6686 334.789 20.8953C335.617 21.6417 335.782 21.5939 336.584 20.3732C337.433 19.0805 337.415 18.9947 336.111 18.1426C334.198 16.8929 330.519 16.6541 328.722 17.6634ZM260.361 17.7042C260.188 17.877 260.018 22.3441 259.983 27.631L259.919 37.244H261.822H263.726V32.9829C263.726 30.6391 263.923 28.6001 264.165 28.4509C264.407 28.3023 266.163 30.2066 268.067 32.683L271.53 37.186L274.092 37.215L276.654 37.244L272.343 32.0541C269.972 29.2 268.032 26.6732 268.032 26.4398C268.032 26.2059 269.429 24.4968 271.137 22.6419C276.14 17.2073 276.057 17.3903 273.515 17.3903C271.465 17.3903 271.126 17.6323 267.933 21.3745C266.063 23.5653 264.352 25.3763 264.129 25.3988C263.907 25.4208 263.726 23.6281 263.726 21.4147V17.3903H262.201C261.362 17.3903 260.534 17.5314 260.361 17.7042ZM282.488 17.6446C282.347 17.7847 282.274 22.1917 282.327 27.4373L282.421 36.9757L284.106 37.1436L285.793 37.3121V27.3509V17.3903H284.268C283.429 17.3903 282.628 17.5046 282.488 17.6446ZM294.224 17.7927C294.091 18.0144 293.957 22.4809 293.928 27.7196L293.876 37.244H298.984H304.092V35.6342V34.0245H300.863H297.633V25.7074V17.3903H296.051C295.18 17.3903 294.358 17.5711 294.224 17.7927ZM309.827 17.7927C309.69 18.0144 309.615 22.4208 309.66 27.5854L309.743 36.9757L314.722 37.1302L319.7 37.2842V35.6546V34.0245H316.471H313.242V25.7074V17.3903H311.659C310.788 17.3903 309.964 17.5711 309.827 17.7927Z" fill="#F71102"/>
<rect y="19" width="16" height="5" fill="#F71102"/>
</svg>
