<svg width="338" height="39" viewBox="0 0 338 39" fill="none" xmlns="http://www.w3.org/2000/svg">
<path fill-rule="evenodd" clip-rule="evenodd" d="M219.951 1.03297C219.347 1.54467 219.525 38.1583 220.131 38.1583C220.48 38.1583 220.669 31.6158 220.669 19.4434C220.669 9.15021 220.588 0.728516 220.49 0.728516C220.391 0.728516 220.148 0.865454 219.951 1.03297ZM137.783 19.2152V32.6807H140.686C142.641 32.6807 143.681 32.4776 143.871 32.0581C144.026 31.7153 144.139 27.9094 144.124 23.5999C144.107 19.2905 144.189 15.684 144.306 15.5858C144.421 15.4873 148.511 19.3827 153.394 24.2417L162.272 33.0765L164.56 33.1066L166.847 33.1372V19.6716V6.20604H163.898H160.949L160.803 15.1207L160.658 24.0349L151.508 14.9203L142.358 5.80573L140.071 5.77742L137.783 5.74958V19.2152ZM0 19.4434V32.6807H2.96019H5.92038V26.975V20.7194H10.7643L15 19.8687L15.6083 19.2152V17.1611H10.7643H5.92038V13.9659V10.7706H11.0334H16.1465V8.48834V6.20604H8.07325H0V19.4434ZM32.293 19.4197V32.6807H39.828H47.3631V30.3984V28.1161H42.7979H38.2327L38.0885 17.2752L37.9443 6.43427L35.1186 6.29642L32.293 6.15811V19.4197ZM62.4331 16.1514C62.4331 25.559 62.4988 26.2068 63.6441 28.1276C64.3497 29.3107 65.8233 30.7289 67.1764 31.5259C69.1328 32.6794 70.1194 32.9208 73.4558 33.0637C78.0796 33.2618 80.6501 32.6584 83.1657 30.7855C86.4187 28.3626 86.916 26.3779 86.9193 15.7917L86.922 6.43427H83.9618H81.0016L80.7303 16.0199C80.5807 21.2921 80.2707 25.9247 80.0403 26.3145C79.3363 27.5081 76.6458 28.5726 74.3336 28.5726C72.6689 28.5726 71.713 28.2508 70.3804 27.2416L68.6226 25.9105L68.4584 16.0583L68.2943 6.20604H65.3637H62.4331V16.1514ZM104.414 19.4434V32.6807H113.055H121.696L121.532 30.5126L121.368 28.3444L115.986 28.2791L110.603 28.2138L110.446 24.7415L110.289 21.2692H115.694H121.099V18.9869V16.7046H115.717H110.334V13.7376V10.7706H115.986H121.637V8.48834V6.20604H113.025H104.414V19.4434ZM181.379 8.48834V10.7706H184.608H187.838V21.7257V32.6807H191.067H194.296V21.7257V10.7706H197.525H200.755V8.48834V6.20604H191.067H181.379V8.48834Z" fill="#222F3B"/>
<path fill-rule="evenodd" clip-rule="evenodd" d="M243.975 15.9314C242.81 16.5527 242.04 17.4592 241.585 18.7469C240.622 21.4733 241.568 22.6866 246.099 24.5371C249.303 25.8457 249.732 26.1721 249.732 27.2986C249.732 28.0016 249.442 28.8232 249.086 29.1245C248.108 29.9539 245.196 29.7804 243.734 28.8059C242.658 28.0879 242.277 28.0377 241.509 28.5137C240.268 29.2838 240.34 29.7763 241.876 31.0001C244.524 33.1103 249.254 33.1258 251.895 31.0339C253.232 29.9744 253.5 29.4075 253.5 27.6332C253.5 24.6293 252.798 23.825 248.853 22.3082C245.101 20.8653 244.477 20.2217 245.404 18.7528C246.129 17.603 248.93 17.4601 250.289 18.5036C251.117 19.1385 251.282 19.0979 252.084 18.0594C252.933 16.9598 252.915 16.8868 251.611 16.1619C249.453 14.9628 245.99 14.8583 243.975 15.9314ZM328.722 15.7543C327.058 16.5495 325.621 18.6049 325.621 20.1906C325.621 21.9471 327.183 23.3001 330.801 24.6767C333.851 25.8375 334.232 26.1265 334.232 27.2795C334.232 27.9929 333.942 28.8232 333.586 29.1245C332.609 29.9534 329.696 29.7809 328.238 28.8077C326.998 27.9811 326.892 27.9783 325.773 28.7465L324.603 29.5494L326.128 30.7887C330.538 34.3715 338 32.3179 338 27.5214C338 24.6357 337.267 23.8131 333.353 22.3082C329.601 20.8653 328.977 20.2217 329.904 18.7528C330.629 17.603 333.43 17.4601 334.789 18.5036C335.617 19.1385 335.782 19.0979 336.584 18.0594C337.434 16.9598 337.415 16.8868 336.111 16.1619C334.198 15.0988 330.519 14.8957 328.722 15.7543ZM260.361 15.789C260.188 15.936 260.018 19.736 259.983 24.2335L259.919 32.411H261.822H263.726V28.7862C263.726 26.7924 263.923 25.0579 264.165 24.931C264.407 24.8045 266.163 26.4245 268.067 28.5311L271.53 32.3617L274.092 32.3863L276.654 32.411L272.343 27.9961C269.972 25.5682 268.032 23.4187 268.032 23.2202C268.032 23.0212 269.429 21.5673 271.137 19.9893C276.14 15.3663 276.057 15.522 273.515 15.522C271.465 15.522 271.126 15.7278 267.933 18.9112C266.063 20.7749 264.352 22.3155 264.129 22.3346C263.907 22.3534 263.726 20.8283 263.726 18.9454V15.522H262.201C261.362 15.522 260.534 15.642 260.361 15.789ZM282.488 15.7383C282.347 15.8575 282.274 19.6064 282.327 24.0687L282.421 32.1828L284.106 32.3256L285.793 32.469V23.9952V15.522H284.268C283.429 15.522 282.628 15.6192 282.488 15.7383ZM294.224 15.8643C294.091 16.0528 293.957 19.8524 293.928 24.3088L293.876 32.411H298.984H304.092V31.0416V29.6722H300.863H297.633V22.5971V15.522H296.051C295.18 15.522 294.358 15.6758 294.224 15.8643ZM309.827 15.8643C309.69 16.0528 309.615 19.8013 309.66 24.1947L309.743 32.1828L314.722 32.3142L319.7 32.4452V31.059V29.6722H316.471H313.242V22.5971V15.522H311.659C310.788 15.522 309.964 15.6758 309.827 15.8643Z" fill="#FDE61B"/>
<rect y="26" width="16" height="5" fill="#FDE61B"/>
</svg>
