<svg width="225" height="129" fill="none" xmlns="http://www.w3.org/2000/svg"><path d="M3.91.745c-.29.457-.266.6.12 1.13.242.336.652.72.918.864.241.144.7.529 1.038.865.314.336.483.432.386.24-.12-.192.483.312 1.304 1.13.796.84 1.593 1.513 1.738 1.513.12 0 .241.216.241.504 0 .264.097.432.193.36.17-.096.556.24 2.56 2.258.313.337 1.013.961 1.545 1.418.579.456.917.937.845 1.129-.073.192.024.336.24.336.218 0 .556.216.75.505.192.288.458.432.603.36.145-.096.217-.024.145.144-.073.192.169.505.53.72.387.24 1.111.818 1.642 1.322.532.48 1.087.865 1.232.84.169-.023.338.097.434.313.073.192.29.36.507.36.193 0 .362.12.362.24 0 .145.266.36.604.481.338.12.603.336.603.456 0 .145.17.193.363.12.217-.096.458.073.627.457.17.36.41.553.604.48.193-.072.338.024.338.193 0 .168.072.216.169.144.072-.096.29.048.483.312s.507.48.724.48c.193 0 .797.457 1.303.985.532.553.942.913.942.793s.12-.024.265.192c.121.24.387.433.556.433.193 0 .483.216.652.48.193.24.482.48.676.529.169.048 1.086.792 2.052 1.681.941.889 1.81 1.634 1.907 1.634.314 0 .893.648.893.985 0 .168.073.24.145.168.072-.072.459.168.893.552.41.385.893.697 1.062.697.17 0 .29.072.266.168-.12.36 5.239 5.381 5.48 5.165.072-.072.12 0 .12.144 0 .168.17.288.363.288.193 0 .362.096.362.24 0 .12.12.24.242.24.265 0 .844.457 1.907 1.538.386.36.82.625.941.529.12-.072.41.12.628.432.193.336.7.793 1.11 1.009.387.24.725.552.725.697 0 .168.265.432.603.6.338.168.604.48.604.649 0 .192.096.288.217.216.266-.168 1.473.865 1.473 1.25 0 .143.144.215.313.167.145-.072.749.313 1.328.841.556.529 1.014.889 1.014.769.024-.096.218.072.483.384.435.529.435 1.25-.048 1.25-.121 0-.483.264-.797.576-.314.336-.82.648-1.086.745-.314.096-.459.288-.387.504.073.192 0 .336-.144.336-.145 0-.435.145-.652.337-.217.192-.7.624-1.063.96-.362.337-.772.625-.893.625-.12 0-.338.216-.483.48-.144.265-.41.481-.603.481s-.362.216-.362.48c0 .265-.29.625-.652.817-.82.433-2.004 1.514-2.004 1.826 0 .144-.145.24-.314.24s-.434.216-.603.48c-.338.553-.604.601-1.062.169-.483-.48-1.4-.673-1.232-.264.073.192.242.336.387.336.145 0 .169.072.096.144-.217.24-1.786-1.201-1.666-1.537.049-.169-.024-.289-.169-.289-.144 0-.265.144-.265.337 0 .216-.17.288-.483.216-.266-.072-.41-.216-.338-.337.072-.12-.048-.216-.241-.216-.46 0-.483.264-.073.721.17.192.024.168-.362-.072-.628-.385-.676-.385-.676-.024 0 .312-.072.336-.362.096-.41-.336-1.207-.144-.966.24.073.144 0 .168-.217.096-.193-.072-.676.048-1.038.313-.362.24-1.086.624-1.57.888-.482.24-1.64 1.177-2.582 2.09-.942.913-1.811 1.658-1.956 1.658-.145 0-.217.096-.145.192.073.12-.193.456-.603.769-.387.336-.7.672-.7.793 0 .096-.483.672-1.063 1.249-.579.6-1.014 1.08-.965 1.08.072 0-.024.145-.193.337-.17.192-.387.288-.46.24-.072-.048-1.134.937-2.34 2.186-1.184 1.25-2.318 2.282-2.463 2.282-.17 0-.242.169-.145.385.12.336.096.36-.217.096-.29-.24-.314-.385-.097-.625.217-.264.193-.336-.072-.336-.194 0-.507-.264-.676-.6-.194-.337-.58-.673-.894-.745-.313-.096-.555-.24-.555-.36s-.29-.361-.652-.53c-.362-.143-1.207-.792-1.883-1.416-.869-.817-1.352-1.105-1.69-1.01-.338.097-.386.073-.169-.096.435-.312-.965-1.85-1.496-1.657-.218.096-.314.024-.242-.168.073-.168-.096-.505-.386-.745-.314-.288-.483-.336-.483-.12 0 .24-.072.24-.362 0s-.314-.36-.097-.48c.194-.145.194-.217-.024-.36-.145-.097-.338-.097-.41-.025-.217.216-.821-.36-.652-.6.072-.12-.048-.289-.241-.36-.218-.073-.387-.265-.387-.385 0-.288-.82-1.057-1.69-1.634a4.98 4.98 0 01-.917-.768c-.217-.216-.459-.36-.58-.289-.096.073-.192-.024-.192-.192 0-.792-3.936-1.898-4.225-1.2-.17.456.555 1.248.99 1.08.193-.072.41.048.482.264.073.217.338.385.58.385.434 0 1.207.696.82.745-.12.023.049.096.387.192s.7.384.845.648c.386.745 1.207 1.466 1.569 1.346.217-.073.266.023.169.288-.097.24-.024.384.193.384.193 0 .362.144.362.312 0 .169.387.457.845.649.459.192.845.456.845.6 0 .169.362.65.821 1.106.604.576.748.864.555 1.009-.193.144-.096.168.242.096.507-.12.676.072.58.624-.025.12.072.144.192.072.314-.192 1.231.793 1.087 1.153-.073.192.096.289.41.289.29-.024.58.144.652.336.12.312.072.312-.314 0-.41-.336-.435-.336-.145.168.314.625.531.673.942.264.217-.216.29-.168.29.24 0 .36.144.529.458.529.241 0 .797.408 1.207.889.41.504.676.72.604.48-.073-.216-.049-.408.096-.408.145 0 .386.384.531.84.145.457.387.89.507.962.121.072.145-.024.073-.217-.073-.216-.024-.384.12-.384.145 0 .266.288.266.649 0 .504.072.576.217.336.193-.288.29-.288.628.072.217.216.338.552.265.745-.072.216.145.504.58.768.676.385.99.841.941 1.37 0 .12.121.288.266.384.483.288.048 1.682-.507 1.682-.483 0-.628.36-.217.6.145.072.193.409.145.72-.049.29.048.818.217 1.154.169.336.241.673.169.769-.097.072-.048.216.096.312.145.096.507.624.797 1.177.266.553.748 1.25 1.062 1.562.314.312.531.696.459.864-.048.144.193.385.507.505.338.12.652.36.7.504.048.144 1.014.313 2.366.385 1.255.072 2.366.24 2.438.384.097.144.29.192.435.096.169-.12.217-.024.12.216-.096.264-.048.337.218.24.193-.096.41 0 .483.193.12.336 1.738.816 2.22.648.145-.024.532-.048.87-.024.338 0 .941-.216 1.328-.504.362-.313.579-.385.458-.192-.193.312-.169.312.193.024.242-.193.966-.601 1.642-.89.797-.384 1.159-.672 1.038-.864-.12-.192-.048-.216.266-.096.265.096.603 0 .869-.24.483-.433.941-.265.941.36 0 .216.121.528.29.697.169.168.193.288.072.288-.096 0 .483.336 1.28.745.82.408 1.497.84 1.497.96s.193.217.434.217c.266 0 .652.216.894.48.217.24.482.432.579.408.169-.047.58.265 2.1 1.682.604.577 1.207 1.033 1.328 1.033.12 0 .217.12.217.288 0 .144.073.192.17.12.096-.096.458.12.844.48.362.361.676.553.676.457 0-.12.29.072.628.433.362.336.797.624.965.624.17 0 .41.144.508.337.096.168.651.6 1.207.96.579.337 1.183.841 1.327 1.105.17.265.387.481.507.481.097 0 .121-.12.049-.24-.266-.433.024-.264 2.752 1.561 1.497.985 2.849 1.802 2.993 1.802.17 0 .58.192.894.408.627.433 1.11.6 1.641.553.145 0 .556-.048.894-.072.555-.048.893-.649.362-.649-.121 0-.242-.168-.242-.384 0-.529-.7-1.033-1.376-1.057-.314 0-.555-.096-.555-.216 0-.217-.41-.457-2.656-1.634-.458-.24-.869-.504-.917-.625-.048-.096-.242-.168-.435-.168s-.338-.12-.338-.24c0-.144-.169-.24-.362-.24-.169 0-.434-.168-.555-.36-.097-.217-.435-.409-.724-.433-.29-.024-.531-.144-.531-.288-.025-.12-.87-.769-1.883-1.441-1.014-.65-1.956-1.346-2.052-1.49-.097-.168-.363-.312-.556-.312-.193 0-.41-.168-.483-.36-.096-.193-.313-.36-.507-.36-.193 0-.29-.097-.217-.217.073-.12-.048-.288-.29-.384-.217-.073-.41-.12-.41-.073-.024.073-.459-.312-2.197-1.921-.555-.505-1.11-.865-1.231-.841-.145.048-.386-.072-.555-.288-.17-.192-.435-.36-.604-.36-.193 0-.362-.073-.41-.193-.024-.096-.507-.384-1.038-.648a13.907 13.907 0 01-1.618-.89c-.338-.24-.845-.432-1.11-.432-.29 0-.556-.096-.652-.24-.193-.312.869-1.49 1.231-1.345.169.072.483-.144.676-.48.217-.313.604-.577.845-.577s.531-.168.603-.385c.073-.192.242-.288.387-.216.12.072.241-.024.241-.24 0-.264.12-.36.362-.264.194.072.338 0 .29-.168-.024-.168.072-.264.217-.24.17.023.362-.193.435-.505.096-.384.483-.72 1.159-1.009.724-.288.917-.456.627-.504-.555-.144-.555-.505 0-.457.314.024.387-.12.338-.576-.048-.577-.048-.577.29-.144.362.456.87.336.87-.217 0-.168.144-.384.313-.432.217-.096.217-.192-.048-.36-.218-.169-.242-.289-.049-.385.145-.096.266-.048.266.072 0 .144.12.264.265.264.145 0 .194-.168.121-.384-.096-.288-.048-.36.218-.24.193.072.337.048.337-.048-.12-.697.073-.937.628-.817.435.072.628-.024.748-.336.073-.264.218-.625.314-.817.242-.456-.603-1.754-1.014-1.537-.169.072-.096-.024.121-.217.242-.192.435-.528.435-.744 0-.505.386-.505.58.024.144.36.24.312.747-.264.435-.505.532-.793.363-1.298-.41-1.345-.725-1.97-1.014-1.97-.194 0-.314-.288-.314-.72 0-.505.169-.793.603-1.01.797-.407 1.135-.672 1.932-1.465.386-.36.724-.648.796-.648.073 0 .652-.529 1.328-1.153.652-.625 1.304-1.105 1.449-1.057.145.048.41-.144.579-.408.169-.289.435-.505.604-.505.169 0 .313-.096.313-.192 0-.216 1.497-1.13 1.763-1.057.096.024.169-.072.169-.216 0-.12.12-.169.29-.072.193.12.217.048.12-.24-.12-.289 0-.457.41-.625.314-.12.652-.337.749-.457.217-.384.603-.312.603.096 0 .193.145.36.314.36.17 0 .459.217.652.481.193.265.435.48.555.48.097 0 .676.481 1.256 1.058.748.768 1.11.985 1.303.792.194-.192.266-.192.266 0 0 .144.266.337.603.409.339.096.604.336.604.528 0 .24.145.337.338.264.193-.072.531.049.773.265a8.96 8.96 0 001.4.889c.507.264.965.6 1.038.768.072.144.29.216.507.144.29-.12.338-.048.217.265-.12.312-.072.408.17.312.192-.072.385-.024.458.144.096.288 4.2.456 4.394.168.12-.192.869-.168 1.28.096.144.096.289.048.289-.072 0-.144.217-.264.459-.264.265 0 .555-.12.651-.264.097-.192.218-.168.387.048.144.24.265.24.338.072.072-.144.386-.216.7-.168.314.072.917-.048 1.352-.265.434-.216 1.183-.384 1.69-.384.507 0 .99-.12 1.062-.24.072-.144.507-.24.917-.24.87-.024 2.776-.48 3.308-.841a2.2 2.2 0 01.82-.264c.266 0 .507-.12.556-.265.048-.144.362-.192.676-.12.53.096 1.448-.456 1.183-.72-.049-.072.193-.12.555-.144 1.183 0 2.97-.577 2.97-.961 0-.24.072-.289.313-.096.193.168.724.144 1.738-.073 1.473-.36 2.149-.192 1.907.457-.144.36 1.449 1.826 1.956 1.826.193 0 .362.096.362.216 0 .24 1.352.769 1.521.576.072-.048.362.024.652.169.386.216.483.216.362.023-.097-.192.048-.24.459-.168.434.072.627 0 .627-.216s.145-.288.362-.216c.242.096.363 0 .363-.312 0-.289.169-.457.482-.457.266 0 .483.12.483.24s.073.145.145.072c.097-.096.459.049.845.313.797.576 2.149.889 2.149.504 0-.144.241-.264.555-.264.7 0 .845-.96.169-1.129-.242-.072-.507-.264-.58-.457-.144-.36-2.027-1.2-2.486-1.105-.169.049-.314-.047-.314-.216 0-.144-.145-.216-.338-.144-.193.072-.386.024-.435-.096-.072-.216-1.376-.649-2.365-.769-.194-.024-.411-.12-.507-.216-.073-.12-.652-.312-1.328-.456-3.742-.793-3.646-.793-4.08-.385-.362.385-.435.385-.797.024-.338-.36-.41-.36-.676.024-.169.217-.41.337-.531.265-.145-.072-.29.024-.362.216-.097.192-.459.336-.82.336-1.208.024-1.763.12-1.763.337 0 .12-.17.144-.386.072-.266-.097-.362-.049-.266.192.097.24 0 .336-.314.264-.314-.072-.41.024-.314.264.145.409-.314.457-.507.024-.072-.216-.217-.168-.458.144-.218.24-.7.433-1.207.457-.483.024-.821.12-.725.264.073.12-.072.144-.362.072-.338-.12-.652-.024-.941.264-.242.24-.773.433-1.183.409-.531 0-.724.096-.652.312.072.168.024.312-.12.312-.146 0-.29-.144-.363-.312-.072-.216-.169-.216-.483.024-.217.192-.507.264-.676.168-.193-.12-.217 0-.12.385.169.552.145.552-.194.12-.313-.36-.555-.409-1.496-.265-.628.096-1.28.313-1.473.505-.193.192-.603.36-.941.36-.87.048-1.014.072-1.207.265-.266.288-1.063.216-1.063-.073 0-.192-.096-.192-.29-.024-.338.265-.41.289-1.279.289-.362 0-.603.144-.603.336 0 .649-.387.6-1.16-.144-.458-.408-.94-.649-1.134-.577-.193.072-.362.024-.362-.096 0-.144-.17-.24-.362-.24-.193 0-.362-.12-.362-.24 0-.144-.145-.24-.314-.24-.17 0-.531-.193-.797-.457-.265-.24-.724-.528-1.014-.6-.29-.096-.459-.289-.386-.433.097-.144-.024-.192-.29-.144-.265.048-.676-.096-.917-.336-.266-.24-.628-.433-.797-.433-.169 0-.314-.12-.314-.24 0-.144-.169-.24-.362-.24-.193 0-.362-.12-.362-.24 0-.145-.12-.24-.265-.24-.145 0-.652-.337-1.111-.721-.434-.409-.917-.72-1.038-.72-.145 0-.242-.145-.242-.313 0-.192-.29-.457-.627-.6-.604-.289-.604-.866.024-.625.241.096.29 0 .193-.36-.072-.289-.024-.505.145-.505.145 0 .241-.312.217-.673-.024-.36.024-.793.12-.937.097-.144.073-.336-.047-.432-.145-.072-.17-.312-.097-.553.145-.36.097-.36-.362.049-.338.288-.531.336-.531.168 0-.169-.097-.24-.217-.169-.121.097-.17-.048-.097-.312.072-.24-.024-.528-.193-.624-.193-.12-.242-.096-.12.072.096.168.096.288-.025.288-.386 0-.748-.36-.845-.84-.048-.265-.241-.457-.386-.41-.17.025-.29-.095-.29-.264 0-.48-3.887-4.275-4.756-4.636-.869-.384-1.762-.432-1.762-.144 0 .529-1.086.024-2.052-.913-.604-.576-1.087-.985-1.087-.889 0 .217-.169.096-1.593-1.129-.555-.48-1.062-.864-1.11-.864-.073 0-.749-.601-1.521-1.322-.773-.72-1.473-1.273-1.521-1.2-.073.047-.41-.217-.773-.601-.386-.409-.797-.721-.941-.721-.145 0-.266-.12-.266-.24 0-.144-.096-.24-.241-.24-.121 0-.483-.24-.821-.553-.966-.865-1.328-1.129-1.593-1.129-.121 0-.652-.408-1.16-.913a22.203 22.203 0 00-1.858-1.61c-.531-.408-1.087-.888-1.231-1.08-.46-.6-2.028-2.21-2.028-2.066 0 .072-.507-.385-1.11-1.01-.604-.624-1.039-.96-.942-.768.096.192-.145 0-.556-.432-.386-.409-.82-.77-.965-.77-.145 0-.338-.215-.41-.48-.073-.264-.315-.48-.508-.48s-.41-.168-.482-.36c-.097-.192-.314-.36-.507-.36-.194 0-.266-.12-.194-.24.073-.145.049-.241-.096-.241-.12 0-.652-.384-1.159-.84-.507-.457-1.062-.842-1.231-.842-.17 0-.266-.096-.193-.192.072-.12-.193-.384-.604-.624-.386-.217-.7-.529-.7-.649s-.193-.216-.41-.168c-.242.048-.41-.072-.387-.24.049-.145-.12-.289-.362-.289-.217 0-.555-.216-.724-.48-.169-.288-.435-.433-.58-.336-.168.096-.192.072-.096-.097.073-.144-.072-.384-.362-.528-.362-.192-.459-.216-.362-.024.241.384-.073.336-.459-.072-.193-.168-.29-.384-.217-.457.072-.072-.12-.192-.41-.288-.29-.096-.821-.432-1.16-.768-.337-.313-.94-.65-1.303-.721-.41-.072-.797-.384-.942-.697-.241-.504-.627-.696-1.207-.6-.12 0-.193-.145-.193-.337 0-.192-.096-.36-.193-.36-.12 0-.748-.48-1.4-1.081-.652-.6-1.304-1.081-1.473-1.081-.169 0-.314-.144-.314-.336 0-.193-.169-.409-.386-.48-.217-.097-.338-.217-.265-.289.193-.192-1.038-1.297-1.425-1.297-.193 0-.338-.144-.338-.313 0-.264-2.728-3.05-3.018-3.05-.265 0-1.062-.817-.941-.985.048-.096-.362-.529-.917-.961a64.723 64.723 0 01-1.642-1.345C6.348 1.009 5.648.48 5.431.48c-.121 0-.46-.072-.725-.144-.338-.072-.58.048-.796.408zm40.51 54.843c0 .072-.097.192-.242.264-.12.073-.241.024-.241-.096 0-.144.12-.264.24-.264.146 0 .242.048.242.096zm-4.564.6c.508-.264.846.193 1.063 1.49l.12.817-.482-.6c-1.11-1.346-1.473-1.658-1.86-1.514-.337.12-.313.216.121.552.29.24.46.48.387.553-.145.12.314 1.033.772 1.537.17.168.58.337.942.409.362.072 1.134.648 1.786 1.321.99 1.081 1.763 1.633 1.376 1.009-.072-.12.024-.288.242-.36.53-.217-.097-.817-.749-.697-.29.072-.386.024-.217-.096.145-.096.386-.529.507-.913.241-.649.266-.673.435-.24.507 1.465.965 2.066 1.472 1.97.531-.096 1.062.48 1.062 1.153 0 .192.097.36.218.36.12 0 .29.312.386.697.072.384.314.768.507.84.193.073.314.049.265-.048-.265-.408-.386-1.97-.169-1.97.145 0 .242.169.242.36 0 .193.12.337.29.313.145-.048.434.24.627.6.194.433.459.625.676.553.193-.072.338.024.338.216 0 .193.121.36.266.36.29 0 1.159.962 1.183 1.298 0 .144.241.48.507.769.29.312.555.889.603 1.321.097.673-.096.96-1.448 2.282-.845.817-1.497 1.561-1.449 1.61.145.12-2.076 2.33-2.341 2.33-.121 0-.266-.264-.363-.6-.072-.337-.29-.601-.482-.601-.194 0-.338-.12-.338-.265 0-.12-.097-.168-.242-.096-.217.144.555 1.466 1.087 1.85.144.12.096.192-.121.192s-.531-.216-.724-.456c-.17-.264-.41-.433-.532-.36-.096.072-.193-.025-.193-.193-.024-.216-.096-.168-.241.072-.145.265-.145.673.024 1.153.145.433.217.841.12.913-.072.096-.144-.024-.144-.24s-.169-.408-.362-.408c-.29 0-.362.168-.242.768.121.6.025.913-.362 1.346-.29.288-.603.48-.724.408-.096-.072-.241-.048-.29.072-.024.096-.58.48-1.207.84-.652.361-1.159.77-1.159.89 0 .408-.41.264-.603-.192-.097-.217-.266-.77-.362-1.202-.17-.696-.145-.768.362-.768.338 0 .603.168.676.48.072.264.241.48.362.48.145 0 .193-.192.12-.456-.072-.24 0-.528.146-.6a.421.421 0 00.096-.505c-.096-.264-.024-.312.266-.216.458.168.507-.168.096-.577-.217-.216-.193-.288.121-.288.217 0 .41-.12.41-.24 0-.144.121-.24.242-.24.145 0 .241.144.193.288-.024.168.096.552.265.865.41.768.942.312.797-.697-.072-.456 0-.817.193-.937.387-.24.049-.793-.386-.624-.193.072-.338.024-.338-.096 0-.36-.41-.289-.82.12-.194.192-.435.36-.556.36-.12 0-.7.48-1.328 1.081-.627.6-1.303 1.081-1.497 1.081-.193 0-.579.336-.869.72-.386.53-.651.697-.99.601-.265-.096-.458-.048-.458.096 0 .144-.193.264-.435.264-.217 0-.555.217-.724.481-.169.288-.435.408-.652.312-.217-.072-.507.048-.676.264-.29.409-1.134.313-1.134-.096 0-.096-.532-.744-1.207-1.44-.652-.698-1.208-1.298-1.208-1.346 0-.096-.7-.913-1.858-2.21-.435-.48-.797-.937-.797-1.01 0-.071-.314-.311-.7-.552-.966-.552-1.135-.168-.435.961.314.505.58.961.58 1.033-.049.505.337 1.201.675 1.201.242 0 .314.12.218.289-.145.24-.097.24.193 0 .217-.193.459-.217.531-.096.073.144-.024.36-.217.528-.266.216-.266.408-.073.84.145.337.338.53.435.481.096-.072.169.072.145.313 0 .216.12.384.29.336.193-.024.265.048.193.168-.218.336 1.062 2.618 1.834 3.267.58.48.894 1.081.58 1.081-.048 0-.266.072-.483.144-.217.072-.386.024-.386-.144 0-.144-.749-1.033-1.69-1.97-.918-.937-1.69-1.802-1.69-1.922 0-.144-.145-.192-.338-.12-.218.096-.386-.072-.483-.456-.097-.312-.266-.577-.386-.577-.145 0-.242-.144-.242-.336 0-.192-.169-.384-.362-.48a.613.613 0 01-.362-.529c0-.24-.072-.336-.145-.264-.193.192-.941-.745-1.159-1.441-.096-.265-.313-.65-.507-.793-.193-.168-.362-.505-.362-.72 0-.241-.314-.77-.724-1.154-.58-.577-.652-.769-.386-.985.169-.144.41-.168.507-.072.12.096.12.024 0-.168a.391.391 0 01.145-.529c.193-.096.338-.336.338-.504.024-.168.169-.288.338-.24.193.048.265-.072.193-.24-.049-.169.048-.457.217-.625.193-.168.338-.24.338-.168 0 .072.145 0 .338-.168.193-.169.29-.385.217-.48-.048-.097.048-.121.217-.073.218.096.483-.24.773-.889.241-.576.604-1.225.797-1.441.193-.216.29-.529.169-.697-.097-.192-.073-.24.096-.12.29.168.483-.024 3.55-3.315.94-1.009 1.81-1.826 1.93-1.826.387 0 1.038.865 1.135 1.466.048.288.241.6.435.648.314.12.314.072.024-.288-.29-.336-.29-.384.096-.24.338.144.387.072.242-.409-.097-.408-.073-.48.072-.24.362.529.821.096.507-.48-.12-.264-.217-.6-.169-.745.048-.144.242.192.435.745.169.528.386.985.483.985.29 0-.145-1.754-.628-2.595-.386-.672-.41-.816-.12-.985.265-.168.458 0 .796.77.265.552.53 1.056.652 1.128.096.072.241.312.338.529.072.24.265.432.434.432.145 0 .218-.144.145-.336a7.587 7.587 0 01-.29-1.177c-.096-.48-.386-1.081-.651-1.37-.387-.408-.435-.576-.194-.792.242-.217.338-.217.41 0 .073.168.29.312.484.312.241 0 .338.144.241.48-.072.265-.048.48.072.48.097 0 .194.289.194.625 0 .721.386 1.25.627.841.097-.144.049-.264-.072-.264-.145 0-.266-.168-.266-.36 0-.193.121-.36.242-.36.145 0 .241.095.241.24 0 .12.097.24.217.24.097 0-.096-.6-.434-1.322-.386-.816-.748-1.273-.942-1.2-.169.071-.241 0-.145-.145.218-.384 1.16-.672 1.4-.432.121.096.411.096.652-.048zm2.27.745c-.073.12 0 .289.145.385a.362.362 0 00.458-.144c.145-.216.242-.169.363.216.072.288.265.456.386.384.12-.096.217-.096.217-.024 0 .048.072.313.145.553.072.24.048.336-.073.192-.265-.312-1.279-.889-1.279-.72 0 .071.266.408.604.744.651.648.7.769.386 1.25-.145.263-.314.167-.724-.385-.266-.409-.508-.961-.508-1.225 0-.289-.096-.505-.193-.505-.096 0-.217-.264-.241-.625-.024-.36.048-.552.193-.456.145.096.193.24.12.36zm-7.653 2.234c-.024.049.072.265.266.481.169.24.217.408.12.408-.29 0-.82-.864-.652-1.057.17-.144.41-.024.266.168zm11.322.289c.145.336.17.648.073.72-.097.072-.314-.216-.459-.6-.29-.865-.024-.961.386-.12zm-.965.408c-.073.192-.145.12-.145-.144-.024-.264.048-.408.12-.312.073.072.097.288.025.456zm-13.206.913c0 .12-.048.24-.096.24-.073 0-.194-.12-.266-.24-.072-.144-.024-.24.097-.24.144 0 .265.096.265.24zM47.8 62.098c0 .12-.12.072-.241-.12s-.242-.48-.242-.6c0-.145.121-.072.242.12.12.192.241.456.241.6zm-34.281.12c0 .12-.12.24-.266.24-.12 0-.169-.12-.096-.24.072-.144.193-.24.265-.24.049 0 .097.096.097.24zm39.35 9.85a.24.24 0 01-.24.24c-.121 0-.242-.12-.242-.24 0-.145.12-.24.241-.24.145 0 .242.095.242.24zm-22.692 5.308c0 .145-.097.169-.242.096-.12-.072-.241-.264-.241-.384 0-.144.12-.168.241-.096a.49.49 0 01.242.384zm1.159 1.226c.362.408.651.864.651.96 0 .12.17.313.363.433.193.12.265.24.144.24-.145 0 0 .216.314.505.338.312.628.408.821.288.169-.096.459-.192.652-.168.193.024.555.048.797.072.24 0 .53.288.651.6.121.313.338.625.507.673.435.144.024.673-.53.673-.242 0-.46.096-.46.24 0 .12-.168.24-.362.24-.193 0-.362.072-.362.168 0 .12-.386.216-.845.24-.796.072-1.183-.264-.555-.456.193-.072.12-.384-.266-.985-.313-.504-.675-.817-.844-.745-.17.072-.387-.048-.483-.288-.121-.336-.097-.36.217-.096.193.168.362.192.362.048 0-.288-1.183-2.45-1.642-3.003-.265-.288-.265-.408-.072-.408.169 0 .58.336.941.769zm8.256.192c.29.528.072 1.753-.266 1.537-.12-.072-.217-.336-.217-.6 0-.265-.169-.457-.41-.457-.338 0-.338-.048.048-.48.531-.6.531-.6.845 0zm-2.776.96c-.073.12-.024.24.096.24.145 0 .266.169.266.361 0 .216.241.48.555.6.29.12.386.217.242.217-.17.024-.314.144-.314.288 0 .12.12.168.265.072.17-.096.17.024-.024.385-.241.432-.338.48-.507.216-.12-.192-.217-.24-.217-.096 0 .12-.29-.216-.628-.793-.507-.817-.555-1.105-.338-1.37.338-.408.845-.504.604-.12zm1.569.361c0 .216.169.432.362.505.459.192.483.576.024.576-.193 0-.459-.336-.603-.72-.145-.433-.145-.721 0-.721.12 0 .217.168.217.36zm3.162 1.874c-.241.216-.265.192-.12-.144.072-.24.217-.36.29-.289.072.072 0 .265-.17.433z" fill="#3F4E4F"/><path d="M39.35 59.937c0 .12.12.408.241.6.12.192.241.24.241.12 0-.144-.12-.408-.241-.6-.12-.193-.241-.265-.241-.12zm6.206 2.209c.072.168.217.24.338.168.338-.192.265-.505-.12-.505-.194 0-.29.145-.218.337z" fill="#3F4E4F"/><path d="M33.243 62.818c-.218.144-.338.36-.242.432.073.096-.024.169-.241.169-.459 0-.555.36-.169.6.145.072-.072.408-.459.745-.41.336-.676.744-.603.937.072.168 0 .552-.145.84-.217.385-.217.6 0 .841.169.192.217.457.12.6-.072.145.073.24.339.24.362 0 .507.145.507.505 0 .337.12.457.313.385.194-.072.483-.024.676.072.218.144.483.072.773-.168.41-.385.434-.36.58.144.072.336.265.48.482.408.266-.12.314.096.29.937-.048.865.048 1.13.531 1.538.314.264.773.48.99.504.217 0 .483.096.555.24.266.408.531.264 1.062-.552.266-.409.507-.625.507-.48 0 .167.073.312.193.312.097 0 .194-.457.218-1.01.072-.888.458-1.465 1.038-1.513.072 0 .507-.24.99-.552.482-.289 1.062-.529 1.279-.529.217 0 .386-.096.386-.216s.218-.168.483-.096c.266.072.483.312.483.528 0 .216.096.529.217.721.193.288.29.288.604.048.193-.168.483-.24.603-.144.17.072.193 0 .121-.216-.072-.216-.048-.385.097-.385.12 0 .313-.264.386-.6.096-.337.265-.6.386-.6.12 0 .17-.145.097-.337-.073-.192-.024-.577.12-.84.218-.385.218-.457-.048-.361-.217.072-.459-.144-.652-.625-.217-.552-.362-.672-.507-.432-.169.24-.217.24-.217-.048 0-.24-.072-.264-.241-.096-.194.192-.676.144-1.618-.096-1.038-.265-1.497-.265-1.81-.073-.242.145-.628.265-.894.265-.314 0-.434.168-.434.6 0 .337.072.6.193.6.12 0 .217.313.217.698 0 .504-.145.768-.483.864-.265.072-.483.265-.483.385s-.217.216-.482.216c-.266 0-.483-.12-.483-.264 0-.145-.145-.216-.314-.145-.193.073-.483.025-.676-.071-.217-.145-.483-.073-.773.192-.386.336-.458.336-.651.048a1.345 1.345 0 01-.242-.673.293.293 0 00-.29-.288c-.144 0-.193-.072-.12-.168.096-.072-.024-.289-.242-.433-.362-.264-.362-.36-.096-.696.169-.217.265-.529.193-.721-.097-.24-.024-.312.169-.24.169.072.459-.048.628-.264.265-.313.241-.457-.121-.841-.241-.265-.58-.48-.773-.48-.169 0-.313-.193-.313-.41 0-.311-.073-.335-.266-.143-.169.168-.483.192-.797.072a1 1 0 00-.941.12z" fill="#FDE61B"/><path d="M47.559 71.179c0 .696.483 1.61.845 1.61.676 0 .434-.986-.41-1.658-.387-.289-.435-.265-.435.048zM223.551 9.152c0 .12-.096.193-.193.12-.314-.192-1.714.601-1.859 1.082-.096.24-.362.456-.603.456-.338 0-.556.288-.749.96-.169.505-.362.914-.483.89-.241-.072-2.872 2.426-2.872 2.738 0 .144-.097.168-.242.096-.121-.072-.241.024-.241.24 0 .217-.121.313-.242.24-.145-.071-.386 0-.579.169-1.086 1.057-2.1 1.874-2.318 1.874-.12 0-.362.216-.531.48-.169.264-.434.48-.603.48-.145 0-.459.24-.652.53-.217.287-.386.431-.386.311 0-.144-.242.048-.556.385-.289.336-1.134.985-1.859 1.465-1.207.769-1.762 1.201-3.235 2.547-.289.264-.386.288-.265.072.121-.193-.169-.096-.628.216-.458.312-.869.672-.893.768-.048.12-.193.145-.314.049-.121-.073-.217.048-.217.264 0 .216-.121.312-.242.24-.144-.096-.555.12-.893.456-.338.337-.7.553-.796.505-.121-.072-.363.024-.556.216-.193.192-.41.288-.507.216-.072-.072-.193.024-.289.24-.073.217-.459.457-.87.529-.386.096-.772.312-.844.505a.52.52 0 01-.459.336c-.193 0-.555.216-.845.504-.266.265-.652.433-.821.36-.193-.072-.555.145-.797.457-.265.336-.676.649-.917.697-.99.216-1.545.456-1.545.648 0 .12-.145.216-.314.216s-.531.193-.797.457c-.265.24-.893.576-1.376.769-.482.168-.893.408-.893.528 0 .096-.096.12-.241.048-.121-.072-.242-.048-.242.072 0 .24-1.328 1.13-2.462 1.658-.362.144-.918.504-1.207.769-.29.288-.676.504-.845.504-.169 0-.314.12-.314.24 0 .144-.266.36-.604.48-.338.12-.603.337-.603.481 0 .12-.145.24-.314.24-.193 0-.652.264-1.038.6-.386.337-.893.601-1.111.601-.241 0-.434.096-.434.217 0 .12-.217.312-.483.384-.29.096-.7.36-.941.625-.242.264-.652.504-.918.552-.41.096-1.835.913-2.607 1.538-.121.096-.869.48-1.618.864-.772.385-1.4.841-1.4 1.01 0 .191-.145.264-.386.167-.242-.072-.531 0-.676.193-.145.192-.676.552-1.159.816-.507.265-.917.577-.917.697s-.073.144-.145.072c-.097-.096-.338.048-.555.288-.218.24-.676.505-1.038.6-.387.073-.676.265-.676.385 0 .144-.169.24-.363.24-.193 0-.362.096-.362.193 0 .12-.531.456-1.207.744-.652.289-1.207.649-1.207.769s-.145.216-.338.216c-.193 0-.386.168-.483.36a.375.375 0 01-.483.217c-.193-.072-.555.072-.82.336-.266.264-.556.432-.628.336-.072-.072-.145 0-.145.169 0 .168-.121.216-.241.144-.145-.072-.411.024-.628.216-.217.216-.483.336-.603.24-.121-.072-.314.12-.435.432-.145.313-.241.409-.241.217-.025-.264-.121-.264-.459.048-.242.24-.531.336-.628.24-.096-.096-.29 0-.41.24-.145.216-.338.36-.435.288-.12-.048-.338.024-.483.217-.169.192-.869.624-1.569.985-.7.36-1.593.912-1.955 1.225-.362.312-.821.576-1.014.576-.169 0-.314.168-.314.36 0 .193-.145.36-.338.36-.193 0-.676.313-1.086.698-.701.648-1.304.888-2.753 1.105-.289.048-1.086.24-1.762.432-.7.192-1.4.264-1.569.144-.169-.096-.507-.072-.749.048-.482.264-3.862.192-4.055-.072-.145-.192-2.583-.528-5.456-.769-.556-.048-1.135-.144-1.28-.24-.145-.096-.893-.192-1.69-.24-.845-.024-1.69-.216-2.076-.48-.338-.217-.966-.433-1.352-.433-.386-.024-.797-.144-.893-.312-.266-.457-1.931-.913-2.656-.697-.362.096-.772.144-.917.12-.145 0-.41.144-.579.337-.169.192-.435.36-.604.36-.169 0-.459.24-.676.528-.845 1.298-2.487 2.835-3.09 2.907a2.19 2.19 0 00-1.062.408c-.218.193-.628.36-.918.409-.265.048-.603.168-.748.288-.145.096-.58.288-.99.385-.386.12-.821.24-.966.264-.12.048-.458.12-.724.144-.265.048-.628.216-.797.384-.193.168-.434.24-.555.168-.12-.072-.458-.024-.748.145-.29.144-1.062.312-1.714.36-.652.048-1.352.216-1.545.384-.387.312-.676.409-2.004.577-.459.048-1.014.168-1.207.264-.193.072-.628.168-.942.216-.313.024-.748.24-.965.433-.459.408-1.835.528-2.052.168-.073-.12-.507-.192-.918-.144-.434.024-.917-.048-1.086-.169-.193-.168-.435-.12-.676.145-.217.216-.531.384-.724.384-.652 0-2.777 3.291-2.777 4.3 0 .144-.096.264-.241.264-.12 0-.241.144-.241.313 0 .168-.435.72-.966 1.225-.531.504-.918 1.009-.82 1.129.072.12.023.216-.098.216-.386 0-3.066 2.738-3.5 3.603-.217.457-.362.649-.29.433.049-.24.024-.433-.072-.433-.266 0-2.945 2.643-2.945 2.883 0 .144-.121.24-.266.24-.145 0-.217.168-.12.36.072.193.023.36-.121.36-.145 0-.194.097-.097.217.072.12.024.288-.12.384-.145.096-.194.24-.121.36.072.097-.049.241-.242.337a.579.579 0 00-.362.504c0 .193-.096.36-.217.36-.266 0-.507 1.178-.266 1.322.097.048.024.649-.145 1.297-.313 1.225-.217 2.186.193 2.186.145 0 .17.168.097.385-.145.336.435 1.753.82 2.018.097.072.363.528.556 1.032.218.481.483.89.58.913.096 0 .482.048.844.096.363.048.725 0 .773-.096.072-.096-.193-.816-.58-1.585-.386-.793-.772-1.802-.868-2.234-.073-.409-.242-.769-.363-.769-.12 0-.217-.216-.217-.456 0-.265-.12-.553-.241-.625-.145-.096-.17-.264-.097-.408.12-.169.048-.216-.169-.144-.265.096-.338-.025-.314-.505.025-.336.073-.648.097-.697.048-.024.072-.168.097-.288 0-.144.144-.336.29-.432.168-.096.289-.48.289-.889 0-.384.12-.745.265-.793a.423.423 0 00.266-.384c0-.288.87-1.13 1.014-.985.048.048.217-.12.386-.36.17-.289.193-.48.049-.48-.483 0-.218-.457.29-.53.337-.047.555-.24.53-.456-.024-.264.121-.36.387-.288.241.072.507 0 .579-.144.096-.144 0-.264-.266-.264-.386-.024-.386-.048.049-.289.265-.144.724-.504 1.038-.84.314-.313.676-.505.796-.409.145.072.314-.072.387-.36.072-.264.217-.457.314-.385.12.072.265-.096.362-.36.096-.264.265-.432.386-.336.145.072.217-.048.169-.288-.048-.289.048-.433.241-.385.194.024.266-.048.194-.168-.073-.12.048-.36.265-.528.29-.24.338-.24.217-.024-.096.192-.024.288.218.288.265 0 .362-.12.265-.36-.072-.193-.024-.36.097-.36.145 0 .241-.241.241-.505 0-.409.073-.457.314-.24.241.192.41.168.603-.025.218-.216.41-.216.821 0 .87.409 2.221.625 2.028.313-.096-.168.024-.264.29-.264.266 0 .603-.169.772-.36.17-.217.676-.553 1.111-.746.603-.288.82-.552.82-.984 0-.457.097-.577.387-.457.266.096.362.048.266-.144-.049-.168 0-.577.12-.913.169-.48.266-.528.435-.24.193.288.241.216.241-.264 0-.337.145-.745.314-.913.242-.264.193-.288-.241-.144-.338.096-.556.048-.556-.096 0-.145.169-.265.363-.265.193 0 .362-.096.362-.192 0-.36 1.231-.865 1.931-.817.459.024.773-.096.942-.36.144-.24.265-.312.265-.144s.266.24.797.144c.41-.048.965-.12 1.183-.12.241.024.483-.072.555-.216.097-.12.41-.216.748-.216.314 0 .58-.12.58-.265 0-.168.265-.216.724-.144.386.096.773.072.821-.048.072-.096.917-.384 1.883-.625.966-.216 1.907-.528 2.052-.648.169-.144.531-.192.797-.12.265.072.482.024.482-.12s.145-.193.338-.12c.194.072.411 0 .459-.193.073-.168.507-.384.942-.48a7.13 7.13 0 001.472-.529c.387-.192.869-.264 1.087-.168.241.096.555.144.724.12.145-.024.29.072.29.24 0 .145.169.217.362.145.193-.096.41-.048.458.048.145.216 2.052.624 2.439.504a4.08 4.08 0 01.724-.12c.748-.072 2.293-.793 2.293-1.057 0-.36 1.377-1.705 1.739-1.73 1.545-.095 1.883-.072 1.883.073 0 .096.145.12.338.048.193-.072.748-.024 1.279.12.628.192.942.192 1.014 0 .024-.12.217-.048.411.192.217.288.313.312.338.12 0-.192.12-.24.313-.12.29.192.845.264 2.777.384.555.024 1.014.096 1.014.169 0 .072.386.144.845.168.458 0 1.013.096 1.255.192.338.12 2.655.336 4.056.36.483.024 1.545-.192 1.786-.36.145-.072.266-.024.266.096 0 .288.652.24 1.159-.048.144-.12.289-.12.289-.024s.193 0 .435-.216c.652-.577 2.704-1.297 3.862-1.322.701-.024 1.208-.216 1.57-.552.289-.288.386-.432.193-.336-.266.144-.314.096-.193-.217.096-.24.048-.384-.145-.36a4.102 4.102 0 01-.773 0c-.458-.024-.458-.048.049-.336 1.858-1.033 3.379-1.946 3.693-2.186.193-.168.845-.505 1.449-.745.603-.264 1.134-.529 1.207-.6.072-.073.459-.289.845-.481.41-.192.821-.504.917-.649a.73.73 0 01.531-.312c.193 0 .362-.12.362-.264 0-.12.097-.192.218-.12.314.192 1.472-.409 1.472-.769 0-.168.097-.264.218-.168.12.072.603-.096 1.038-.36a12.316 12.316 0 011.327-.697c.266-.12.58-.36.676-.504.073-.12.266-.193.387-.12.12.095.289-.025.362-.24.096-.217.314-.337.483-.265.193.072.338.024.338-.096 0-.144.12-.24.265-.24.145 0 .604-.265.99-.601.386-.336.797-.553.917-.48.097.048.363-.096.604-.36.241-.265.579-.481.748-.481.169 0 .411-.168.531-.385.121-.192.363-.384.556-.432.483-.096 1.907-.96 1.907-1.177 0-.096.265-.168.603-.168.338 0 .701-.192.845-.48.145-.265.362-.433.483-.361.242.144 3.38-1.682 3.67-2.138.12-.144.193-.168.193-.024 0 .12.169.024.362-.216.193-.265.362-.409.362-.313 0 .097.507-.216 1.111-.696.627-.457 1.279-.793 1.448-.72.193.071.338 0 .338-.193 0-.168.29-.456.676-.649.362-.168.845-.528 1.111-.768.241-.24.579-.385.772-.313.193.072.266 0 .169-.24-.072-.168 0-.336.145-.336s.7-.264 1.207-.6c.531-.313 1.231-.65 1.569-.745.338-.073.58-.24.507-.337-.12-.168.121-.336.724-.48.145-.024.507-.264.821-.505.314-.264.7-.456.869-.456.145 0 .701-.312 1.232-.72.507-.385 1.134-.721 1.352-.721.217 0 .555-.193.724-.433.458-.6 1.666-1.105 1.883-.769.121.193.217.12.29-.192.12-.456 2.148-1.73 2.776-1.73.241 0 .314-.143.217-.384-.072-.192-.048-.312.073-.24.386.24 1.762-.36 1.617-.72-.072-.193 0-.265.241-.169.169.072.338.024.338-.12 0-.12.242-.288.556-.384.289-.072.965-.48 1.496-.937.532-.456 1.111-.769 1.28-.72.145.071.29.023.29-.12 0-.265 2.462-1.97 2.848-1.97.169 0 .29-.145.29-.313 0-.264 2.994-2.666 3.428-2.715.097-.024.314-.047.459-.072.121 0 .193-.096.121-.216-.049-.096.048-.384.241-.648.193-.24.338-.385.338-.289 0 .12.29-.096.652-.432.362-.336.748-.6.869-.6.096 0 .434-.265.724-.577.29-.312.773-.625 1.087-.72.289-.097.531-.337.531-.53 0-.192.096-.336.193-.336.12 0 .434-.216.724-.48.29-.288.531-.408.531-.312 0 .096.266-.216.628-.721.338-.505.7-.84.797-.769.265.144.796-.48.579-.672-.073-.096.024-.168.241-.168.242 0 .411-.12.411-.24 0-.145.169-.241.362-.241.217 0 .483-.264.603-.6.121-.337.314-.601.411-.577.531.096.845-.048.724-.336-.072-.168.097-.457.338-.625.507-.288.386-.865-.097-.576-.169.072-.072-.097.194-.385.386-.456.41-.576.12-.745-.483-.312-1.207-.288-1.207.024zM178.286 42.52c.072.12.024.24-.097.24-.145 0-.265-.12-.265-.24 0-.144.048-.24.096-.24.073 0 .193.096.266.24zM5.31 17.873c0 .192.265.648.603 1.009.7.768.748.648.193-.505-.41-.865-.796-1.105-.796-.504zm-4.32.193c-.049.288.748 3.195.99 3.675.144.264.458.672.7.913.265.24.458.672.458.96 0 .289.193.793.41 1.106.218.336.266.504.121.408-.459-.264-.338.12.145.505.217.192.29.288.12.216-.168-.096-.217.024-.144.336.072.264.241.48.362.48.12 0 .169.073.12.169-.193.336.242 1.153.58 1.153.241 0 .314.264.265.793-.024.456.049.744.17.648.12-.072.337.072.482.288.459.793.266-.024-.434-1.922-.386-1.032-.845-2.017-.99-2.21-.145-.192-.217-.456-.12-.6.072-.12.023-.24-.097-.24-.145 0-.242-.072-.218-.192.097-.36-.338-1.73-.53-1.73-.121 0-.363-.432-.508-.961-.29-.985-.555-1.201-.772-.673-.073.169-.073-.096-.024-.576.048-.577-.024-.961-.242-1.081-.169-.096-.434-.529-.58-.913-.144-.408-.265-.649-.265-.552zm5.262 1.944c.145.193.17.433.073.53-.097.12-.024.095.169 0 .265-.145.314-.097.193.191-.073.24-.048.409.048.409.12 0 .17.192.097.456a.93.93 0 00.241.769c.17.192.29.48.217.673-.072.24 0 .288.314.168.29-.096.386-.048.29.192-.097.264-.024.312.265.216.314-.12.363-.096.145.192-.434.6-.096 2.306.41 1.994.194-.12.218-.072.097.12-.096.168-.072.553.073.817.603 1.225 1.255 2.81 1.255 3.075 0 .192.097.192.362-.024.386-.313.338-.769-.241-2.042-.99-2.138-1.304-2.955-1.449-3.531-.096-.36-.314-.77-.507-.937-.193-.144-.338-.433-.338-.6 0-.193-.096-.337-.241-.337-.12 0-.241-.216-.241-.48 0-.841-.676-2.163-1.111-2.163-.314 0-.338.072-.12.313zm3.646.049c0 .192.12.36.266.36.12 0 .169.096.096.24-.072.12 0 .168.218.096.29-.12.313-.216.072-.6-.338-.553-.652-.6-.652-.096zm.603 1.081c-.072.12-.024.24.121.24s.217.192.145.432c-.097.288.024.624.338.889.265.24.483.624.483.84 0 .217.12.505.29.673.217.216.217.288 0 .288-.194 0-.218.265-.121.77.169.984.29 1.104.555.672.145-.216.241-.24.241-.072 0 .144-.12.36-.241.432-.17.096-.145.336.048.673.145.288.266.552.242.576-.145.264.313 1.514.603 1.61.29.12.314.216.073.504-.218.24-.218.36-.025.36.145 0 .242.073.218.169 0 .12.024.36.096.552.073.192.266.817.435 1.37.169.576.41.96.555.864.145-.072.17-.024.072.144-.217.313.049 1.226.338 1.226.097 0 .194-.385.17-.841-.025-.457-.097-.841-.17-.841-.072 0-.168-.288-.193-.625-.024-.336-.12-.744-.217-.888-.097-.169-.193-.409-.193-.529-.024-.144-.169-.552-.314-.937-.169-.384-.362-1.08-.434-1.561-.073-.48-.242-.937-.363-1.01-.12-.071-.265-.48-.338-.912-.048-.432-.217-.937-.386-1.13-.169-.191-.338-.672-.362-1.032-.097-.745-.966-2.81-1.304-3.027-.12-.072-.265-.024-.362.12z" fill="#3F4E4F"/><path d="M10.742 23.061c.072.12.193.24.265.24.049 0 .097-.12.097-.24 0-.144-.12-.24-.266-.24-.12 0-.169.096-.096.24zm.12.601c0 .433.459.961.628.769.096-.096 0-.36-.217-.576-.218-.24-.41-.313-.41-.193zm8.45 5.406c0 .528.097.696.314.576s.217-.096 0 .144c-.362.409.073 1.682.604 1.682.362 0 .362.048.048.264-.265.192-.29.288-.048.384.145.048.241.217.169.337-.073.096.024.456.241.768.193.313.29.649.193.77-.12.095-.072.12.097.047.145-.096.362.12.531.553.145.432.145.672.024.6-.362-.216-.29.217.12.745.339.456.339.456.387-.024.024-.264 0-.6-.024-.72-.41-1.682-.7-2.403-.942-2.33-.193.047-.241-.097-.144-.433.096-.289.024-.745-.17-1.033-.192-.288-.482-1.033-.675-1.682-.363-1.37-.725-1.681-.725-.648zm-8.449 1.176c0 .12-.073.433-.17.673-.072.24-.072.36.049.264.097-.096.338-.024.507.168.386.384.459.937.096.72-.12-.071-.24-.023-.24.12 0 .169.168.217.434.121.338-.12.362-.096.12.144-.386.385-.41.793-.048.553.193-.096.217 0 .097.36-.121.384-.073.48.217.36.217-.072.386-.024.386.12 0 .145-.096.265-.241.265a.241.241 0 00-.242.24c0 .12.17.168.363.096.193-.096.362-.048.362.096 0 .144-.121.288-.266.336-.338.12 0 .913.41.913.194 0 .339.12.339.288 0 .145.048.217.12.145.193-.193-.145-.937-.362-.793-.12.072-.266.024-.362-.12-.072-.12-.024-.24.12-.24.339 0 .17-.937-.337-1.946-.17-.337-.266-.841-.218-1.13.024-.288-.024-.528-.145-.528-.12 0-.29-.336-.386-.72-.145-.65-.603-1.033-.603-.505zm-4.587 1.081c0 .192.096.409.217.48.12.097.169-.071.096-.336-.145-.552-.313-.624-.313-.144zm11.492.216c.072.24.217.36.29.289.072-.072 0-.264-.17-.433-.241-.216-.265-.192-.12.145zm.337 1.177c0 .169.194.529.41.793.339.433.363.433.218.048-.072-.24-.145-.6-.145-.792 0-.193-.096-.337-.241-.337-.12 0-.242.144-.242.288zm.629 1.994a.418.418 0 00.242.529c.507.192.603.024.217-.48-.266-.36-.314-.385-.459-.049zm-3.525.505c.193.24.362.48.386.528.024.049.096-.024.169-.12.072-.12-.097-.36-.386-.552-.507-.288-.507-.288-.17.144zm4.368.985c0 .096.097.408.218.672.193.457.217.457.217-.048.024-.288-.072-.6-.217-.672-.121-.072-.242-.072-.218.048zm2.439.913c.025.337.194.6.338.6.17 0 .218-.24.145-.6-.048-.336-.193-.6-.314-.6-.12 0-.193.264-.169.6zm-8.57.289c-.073.096.024.408.217.672.242.312.338.36.338.096 0-.48-.386-1.033-.555-.768zm7.074 1.416c0 .264.168.697.386.961.362.432.362.432.217-.264-.193-.89-.604-1.37-.604-.697zm190.405 1.706c-.362.192-.797.553-.966.817-.145.24-.386.456-.531.456-.145 0-.627.409-1.086.89-.435.504-.845.864-.893.792-.025-.072-.29.072-.556.288-.265.24-.579.433-.7.433-.096 0-.386.24-.652.504-.241.288-.7.6-1.014.72-.338.145-.482.337-.386.505.121.193.048.217-.217.12-.266-.096-.41-.023-.41.193 0 .192-.145.36-.314.36s-.725.384-1.232.84c-.507.457-1.038.842-1.158.842-.121 0-.507.288-.869.624a6.751 6.751 0 01-1.425.961c-.434.192-.796.456-.796.577 0 .144-.169.24-.363.24-.193 0-.362.096-.362.24 0 .12-.169.24-.362.24-.193 0-.362.096-.362.24 0 .12-.169.24-.362.24-.193 0-.338.12-.314.289.048.168-.048.288-.217.312-.169 0-.435.144-.58.288-.169.169-.458.313-.627.313-.169 0-.314.096-.314.24 0 .12-.169.24-.362.24a.69.69 0 00-.531.337c-.218.336-1.28.96-1.28.744 0-.096-.41.168-.893.577-.483.384-.966.672-1.062.624-.097-.072-.29.048-.459.24-.169.193-.435.36-.604.36-.169 0-.362.17-.458.361-.073.192-.338.36-.604.36-.265 0-.772.313-1.159.697-.386.36-.965.769-1.279.865-.338.096-.652.24-.724.336-.169.192-.966.697-1.69 1.033-.338.145-.845.505-1.135.769-.314.264-.555.384-.555.288 0-.12-.362.072-.821.433-.459.336-.942.624-1.062.624-.121 0-.411.216-.652.48-.241.265-.652.481-.893.481-.242 0-.725.264-1.063.6-.313.313-.651.601-.7.601-.289.024-1.955.865-2.172 1.105-.121.144-.7.48-1.256.721-.579.24-1.038.505-1.038.6 0 .097-.434.337-.941.53-.531.215-1.014.504-1.111.648a.288.288 0 01-.386.12c-.121-.096-.217-.024-.217.096 0 .144-.169.264-.363.264-.193 0-.362.096-.362.192 0 .12-.386.385-.845.6-1.134.553-1.062.818.242.842.603.024 1.086-.072 1.086-.193 0-.096.555-.456 1.207-.744.797-.36 1.207-.697 1.207-.985 0-.48.387-.577.556-.144.072.216.289.144.7-.24.314-.289.748-.529.965-.529.218 0 .507-.144.676-.336.145-.192.435-.289.628-.216.193.072.338.023.338-.097s.579-.504 1.279-.888c.676-.36 1.642-.913 2.125-1.178.483-.288 1.328-.792 1.883-1.105.531-.336.99-.696.99-.792 0-.12.121-.144.241-.072.145.096.555-.169.966-.553.386-.384.748-.648.821-.576.072.048.507-.169.965-.529.459-.336.99-.624 1.207-.624.194 0 .435-.12.507-.24.097-.145.556-.457 1.039-.697.482-.265 1.134-.697 1.424-.961.29-.288.7-.505.917-.505.193 0 .362-.096.362-.216s.242-.312.556-.408a5.449 5.449 0 001.255-.673c.41-.288.893-.528 1.086-.576.194-.048.604-.337.918-.673.314-.312.7-.577.893-.577.193 0 .362-.096.362-.192 0-.12.29-.36.676-.552.362-.193.797-.529.966-.769.169-.216.458-.408.627-.408.242 0 2.173-1.25 2.559-1.682.411-.432 1.883-1.393 2.004-1.297.073.072.193-.096.29-.385.096-.312.314-.48.555-.432.242.048.676-.144.966-.432 1.641-1.514 1.955-1.85 1.859-2.018-.073-.12.096-.144.386-.072.362.096.531 0 .628-.385.072-.264.217-.456.314-.384.12.072.265.024.362-.12.096-.144.241-.192.338-.144.096.072.579-.264 1.086-.72.483-.457.99-.818 1.086-.818.121 0 .266-.168.362-.36.073-.192.218-.336.314-.312.387.096 1.69-.745 2.101-1.346.869-1.345.313-1.945-1.135-1.177zM21.726 41.751c0 .12.17.409.386.673.338.408.363.408.242.024-.073-.24-.145-.552-.145-.673 0-.12-.097-.216-.241-.216-.121 0-.242.096-.242.192zm188.306 5.815c.217.144.242.24.073.24-.169 0-.363.384-.459.84-.072.457-.241.841-.362.841s-.386.337-.58.745c-.313.577-.338.817-.12 1.08.241.265.217.361-.097.481-.217.072-.386.409-.386.721 0 .288-.193.673-.411.793-.241.144-.362.264-.265.264.096 0-.024.384-.29.865-.265.456-.386.793-.265.72.12-.096.265-.072.338.025.048.12.048.048 0-.145-.049-.192.048-.264.265-.192.242.096.314.024.242-.168-.073-.168.048-.456.241-.625.217-.168.314-.384.241-.528-.072-.12 0-.384.169-.6.194-.217.338-.505.338-.65.025-.312.411-1.224 1.232-2.954.676-1.465.724-1.994.169-1.994-.363 0-.387.048-.073.24zm-.941 2.714c-.242.216-.266.192-.121-.144.072-.24.217-.36.29-.288.072.072 0 .264-.169.432zm3.331-1.226a1.592 1.592 0 000 .48c0 .12-.072.193-.217.193-.121 0-.29.408-.386.889-.097.504-.266 1.032-.386 1.2-.121.169-.169.385-.097.53.097.12 0 .36-.169.552-.41.408-1.11 2.642-.941 2.954.169.265 1.52-2.666 1.569-3.41.024-.265.12-.457.217-.41.193.12.41-.504.652-2.065.096-.649.096-1.201 0-1.201-.121 0-.242.144-.242.288zm-4.998.552c.073.336.073.552 0 .48-.072-.072-.313.289-.555.77-.241.504-.338.96-.217 1.032.121.072.048.48-.145.913-.169.432-.434.745-.579.649-.338-.217-.314.192.048.552.241.24.193.336-.241.456-.435.097-.532.265-.435.673.097.336 0 .673-.217.84-.193.17-.338.53-.314.818.024.264-.048.768-.145 1.08-.145.385-.121.505.072.409.145-.096.266-.384.266-.624s.097-.505.217-.601c.121-.072.29-.456.387-.84.096-.41.265-.721.386-.721s.193-.073.169-.193c-.097-.216 1.303-3.723 1.545-3.891.096-.072.241-.577.338-1.105.121-.793.072-1.01-.266-1.153-.338-.12-.41-.048-.314.456z" fill="#3F4E4F"/><path d="M206.073 52.776c-.145.337-.121.36.12.145.169-.169.242-.36.169-.433-.072-.072-.217.048-.289.288zm.338 3.797c0 .36.096.576.241.48.145-.072.241-.288.241-.48s-.096-.409-.241-.48c-.145-.097-.241.12-.241.48zm3.404-.144c-.169.12-.217.264-.121.336.121.072.362-.024.531-.216.338-.384.121-.432-.41-.12zm-.509 1.466c0 .12.121.24.242.24a.24.24 0 00.241-.24c0-.145-.096-.24-.241-.24a.242.242 0 00-.242.24zm-3.45.455c-.097.409-.072.505.121.313a.655.655 0 00.145-.553c-.073-.192-.169-.072-.266.24zM9.414 61.544c0 .217.12.481.266.553.41.264.483 0 .096-.504-.314-.409-.338-.409-.362-.049zm212.93 4.566c0 .144-.072.192-.145.12-.144-.144-.7.096-2.027.817-1.063.6-2.584 1.273-2.825 1.297-.169 0-.531.192-.797.433-.265.216-.579.384-.676.384-.338-.072-1.738.552-1.617.745.048.096-.145.168-.459.168-.338 0-.941.264-1.376.576-.434.289-.7.385-.579.192.12-.216.024-.192-.29.073-.266.24-.604.432-.748.432-.169 0-.29.12-.29.24 0 .144-.145.24-.314.192-.145-.048-.724.193-1.255.505-.531.312-1.014.528-1.063.504-.048-.024-.169.096-.289.289a.841.841 0 01-.628.312c-.241.024-.7.168-1.038.36-.338.192-.7.313-.797.288-.096-.024-.41.169-.7.433-.265.24-.603.408-.724.336-.097-.072-.483.096-.821.36-.362.289-.748.505-.869.505-.338 0-2.945 1.297-3.042 1.49-.048.12-.29.192-.555.192-.242 0-.459.096-.459.216s-.362.336-.772.528c-.435.168-.869.409-.942.505-.072.12-.362.24-.628.288a12.62 12.62 0 00-1.545.576c-1.617.697-2.003.841-2.196.817-.121-.024-.194.072-.194.192 0 .145-.193.24-.434.24-.242 0-.531.097-.676.24-.121.121-.459.265-.724.313-.411.048-2.052.793-4.611 2.042-.411.216-.725.456-.652.553.12.216-.507.456-1.135.456-.265 0-.434.096-.362.216.072.096-.459.505-1.183.865s-1.328.745-1.328.865-.169.216-.362.216c-.193 0-.362.096-.362.24 0 .12-.266.288-.604.385-.338.072-.603.24-.603.384 0 .12-.097.144-.242.072-.12-.072-.241-.024-.241.096 0 .144-.145.264-.314.264-.193 0-.531.217-.772.48-.242.265-.58.481-.749.481-.169 0-.555.313-.893.697-.314.384-.917.865-1.328 1.08-.386.193-.869.505-1.062.674-.169.168-.797.576-1.4.888-.604.313-1.328.817-1.618 1.105-.289.265-.82.649-1.207.841-.845.433-1.303.865-1.159 1.057.073.072.049.096-.024.024-.241-.168-2.028.817-2.172 1.201a.386.386 0 01-.483.192c-.193-.072-.338 0-.338.145 0 .144-.169.264-.362.264a.58.58 0 00-.507.36.693.693 0 01-.58.36c-.241 0-.603.169-.796.36a2.603 2.603 0 01-.966.481c-.338.096-.821.36-1.111.625-.265.24-.603.456-.748.456-.121 0-.241.12-.241.265 0 .144-.194.192-.435.12-.29-.096-.628.024-.893.336-.242.264-.58.48-.773.48-.193 0-.772.217-1.279.481-.531.264-.966.432-.966.36 0-.072-.241.024-.531.216a6.59 6.59 0 01-1.207.481c-.386.096-.676.264-.676.408 0 .144-.097.168-.241.096-.121-.072-.242-.024-.242.12 0 .145-.096.193-.241.121-.121-.072-.483 0-.773.168-.314.144-.748.312-.99.36-.217.048-.82.312-1.327.625-.483.312-1.039.528-1.183.48-.169-.072-.314 0-.314.12s-.459.288-1.014.385c-1.883.312-4.032 1.537-3.67 2.09.169.288 1.352.192 1.594-.145.096-.12.434-.24.724-.264.966-.024 1.617-.336 1.473-.721-.073-.192.024-.336.265-.336.242 0 .314.144.217.36-.096.313-.024.337.435.145 1.183-.481 1.545-.577 1.762-.529a.415.415 0 00.362-.144c.073-.12.459-.336.821-.504.362-.169.628-.385.555-.481-.048-.096.266-.144.749-.096.652.096.821.024.676-.192-.121-.192-.097-.264.048-.168.29.168 1.811-.385 1.787-.625-.049-.48 0-.649.217-.649.121 0 .169.169.096.361-.12.288.121.24 1.014-.192.652-.289 1.352-.649 1.545-.769.387-.24.507-.288 1.111-.336.266-.024.338-.193.241-.577-.072-.288-.072-.408-.024-.264.218.432 2.946-.601 3.09-1.153.097-.337.266-.409.7-.313.363.096.725 0 1.039-.288.724-.648 2.438-1.537 2.631-1.345.072.072.145-.024.145-.264 0-.216.096-.36.217-.289.121.073.338-.024.507-.216.169-.192.507-.36.748-.36.242 0 .628-.288.845-.625.266-.384.483-.504.58-.336.096.168.314.048.579-.336.218-.337.556-.625.724-.625.194 0 .411-.168.483-.384.073-.192.242-.313.362-.24.121.072.266-.024.363-.217a.58.58 0 01.507-.36c.193 0 .362-.12.362-.264 0-.144.169-.216.362-.12.217.072.555-.072.796-.36.459-.553 1.425-1.154 1.159-.721-.096.144-.072.264.049.264.12 0 .289-.216.362-.457.072-.312.41-.528 1.038-.648.917-.168 1.762-.889 1.786-1.514 0-.192.073-.264.169-.192.073.096.29-.048.483-.312s.483-.408.676-.336c.241.096.362 0 .362-.265 0-.216.097-.312.242-.24.12.072.362-.072.531-.36.169-.264.555-.48.845-.48.313 0 .555-.12.555-.24 0-.145.217-.241.483-.241.241 0 .555-.144.652-.336.217-.36 1.472-1.177 2.559-1.634.362-.168.651-.384.651-.456 0-.096.338-.24.725-.337.41-.096.724-.264.724-.384s.217-.216.459-.216c.265 0 .507-.12.555-.264.048-.12.459-.289.893-.36.459-.073 1.062-.289 1.352-.481.29-.192.604-.264.676-.192.097.096.217-.024.314-.24.072-.217.338-.385.579-.385.217 0 .773-.192 1.231-.408.459-.24.966-.433 1.135-.457.193-.048.531-.24.748-.432.242-.216.604-.337.845-.24.218.072.387.048.387-.097 0-.36 1.859-1.249 2.293-1.105.193.097.362.048.362-.072 0-.216 1.135-.96 1.569-1.033.145 0 .483-.192.797-.384.29-.192.531-.264.531-.168s.169-.048.362-.312c.194-.24.363-.36.363-.24 0 .096.265.023.603-.193.314-.216.7-.384.845-.384.121 0 .459-.192.724-.433.266-.216.749-.408 1.038-.408.387 0 .507-.144.459-.48-.048-.385-.024-.409.169-.145.193.289.29.289.579.049.266-.193.387-.217.459-.025.048.169.507-.096 1.014-.576.531-.456 1.038-.793 1.135-.72.096.047.241 0 .338-.12.072-.145.289-.193.483-.097.193.072.362.024.362-.096 0-.288 1.352-1.057 1.545-.865.072.072.145.024.145-.144 0-.168.12-.216.241-.144.145.072.435-.024.652-.24.217-.216.579-.337.845-.288.241.072.386.047.314-.073-.145-.216.434-.48 1.062-.48.241 0 .628-.216.869-.48.241-.265.507-.409.604-.36.096.071.313-.049.482-.241.145-.168.435-.264.604-.216.169.072.555-.096.821-.36.289-.289.652-.505.821-.505.193 0 .844-.264 1.496-.6.652-.313 1.256-.53 1.352-.457.097.048.362-.264.58-.72.217-.457.555-.89.748-.962.652-.24.097-.624-.893-.624-.555 0-.942.12-.942.288zm-57.458 3.963a6.715 6.715 0 00-.941.745c-.169.168-.459.264-.628.192-.169-.048-.531.144-.821.48-.265.313-.652.505-.821.433-.362-.12-.748.769-.507 1.153.242.385 1.038.192 1.401-.336.217-.288.386-.408.386-.24 0 .144.12.288.265.288.145 0 .218-.144.145-.336-.072-.193.048-.48.266-.673.362-.288.386-.264.072.096-.193.288-.217.432-.048.432.145 0 .434-.288.676-.672.217-.36.748-.937 1.159-1.297.82-.745.386-.937-.604-.265zm17.141.097c-.169.264-.217.552-.145.624.073.073-.048.265-.265.433-.218.168-.387.624-.387 1.033 0 .528-.096.697-.289.528-.169-.144-.362-.048-.555.265-.169.264-.194.456-.049.456.121 0 .242-.12.242-.288 0-.144.048-.217.12-.144.266.24-.169.888-.507.744-.193-.072-.338 0-.338.168 0 .145-.217.553-.482.89-.266.336-.483.816-.483 1.056 0 .24-.29.72-.652 1.057-.362.337-.531.6-.362.6.386 0 1.979-1.68 1.979-2.09 0-.167.121-.311.29-.311.145 0 .217-.073.121-.145-.073-.072.048-.36.265-.624.218-.264.604-.697.845-.961.459-.577.531-.913.169-.913-.12 0-.241-.12-.241-.24 0-.168.145-.168.483 0 .338.168.483.168.507 0 .072-.6.096-.697.265-.84.097-.097.097-.337.024-.53-.072-.192 0-.456.169-.552.314-.192.145-.72-.241-.72-.121 0-.338.216-.483.504zm-55.453 1.657c.072.529.024 1.417-.121 1.97-.41 1.826-.435 1.946-.169 2.282.217.24.193.312-.121.312-.338 0-.507.433-.41 1.057.024.096-.097.337-.241.529-.145.192-.194.336-.073.336.121 0 .024.12-.193.264-.241.12-.435.36-.435.505 0 .12-.265.576-.603.96-.338.385-.555.817-.459.938.073.12-.048.384-.241.6-.362.337-.387.288-.387-.432 0-1.057-.362-1.634-.555-.889-.072.312-.048.673.097.84.314.385 0 2.259-.483 2.835-.314.385-.314.433-.024.265.193-.12-.097.264-.676.864-.821.841-1.062.985-1.256.697-.144-.216-.193.168-.169 1.153.025 1.105.121 1.466.338 1.393.29-.12.435.169.338.649-.072.384.58.024.821-.48.145-.265.435-.649.676-.89.218-.24.531-.648.676-.912.266-.505.266-.505.724.072l.435.576-.097-.936c-.12-.937.29-2.787.628-2.787.097 0 .217-.24.266-.528.048-.289.217-.553.386-.577.169-.024.193 0 .072.048-.289.168-.048.84.411 1.201.314.216.289.288-.073.433-.41.144-.41.168 0 .624.314.36.362.6.193 1.13-.265.768-.144 1.513.218 1.513.145 0 .193.288.12.72-.12.553-.072.721.218.721.265 0 .338-.192.241-.793a40.629 40.629 0 01-.265-1.898c-.073-.624-.242-1.2-.387-1.273-.12-.096-.12-.336.049-.624.169-.36.169-.577-.025-.817-.144-.168-.265-.793-.289-1.393 0-.937.145-1.538.965-3.772.073-.192.097-.552.073-.793-.024-.216.048-.408.169-.408.386 0 .724-1.946.797-4.468.048-1.442-.097-1.778-.797-1.778-.435 0-.483.096-.362.961zm51.952-.409c.266.793.483.937.507.289.024-.313-.12-.625-.314-.697-.265-.12-.313-.024-.193.408zm-.627.938a1.94 1.94 0 000 .529.41.41 0 01-.145.36c-.41.288-1.449 2.306-1.352 2.594.072.168 0 .313-.145.313s-.265.192-.265.432c0 .528-.869 2.378-1.159 2.498-.338.12-.604 1.153-.314 1.153.579 0 1.376-1.249 1.255-1.97 0-.12.049-.168.169-.12.097.024.218-.072.266-.192.048-.144.29-.528.531-.865.241-.36.483-.864.531-1.129.048-.264.193-.624.338-.816.145-.169.338-.577.435-.913.096-.337.338-.769.531-.985.289-.36.289-.457-.048-.793-.483-.456-.604-.48-.628-.096zm-3.332.624c-.169.311-.145.552.024.72.169.168.194.36.073.456-.097.12-.242.048-.29-.12-.169-.432-.772.385-.797 1.057 0 .288-.217.793-.482 1.13-.266.336-.411.768-.338.984.072.216.024.385-.121.385s-.483.432-.748.96c-.435.865-.459 1.01-.145 1.322.314.312.41.24.845-.553.917-1.705 1.472-3.003 1.376-3.123-.073-.072.096-.432.362-.816.29-.385.555-1.058.579-1.514.049-.456.145-.937.242-1.08.072-.121.048-.241-.097-.241-.145 0-.362.192-.483.432zm-14.557.095c-.7.24-.941.913-.338.913.194 0 .387.096.435.216.048.096.241.024.459-.192.217-.216.338-.552.241-.769-.121-.312-.29-.336-.797-.168zm11.155.193c-.145.264-.194.625-.097.769.097.168.072.192-.097.096-.169-.096-.289-.024-.289.192 0 .192.12.432.241.505.145.096.169.264.097.408-.097.144-.218.12-.362-.072-.242-.385-.797.889-.604 1.393.072.192.024.264-.097.192-.144-.072-.265 0-.265.168-.024.169-.048.409-.097.553a4.1 4.1 0 00-.072.673c-.024.264-.169.36-.338.264-.145-.096-.193-.072-.097.096.073.144-.024.36-.265.48-.266.169-.411.553-.411 1.177-.024.577-.193 1.13-.458 1.394-.338.312-.362.48-.145.6.169.12.193.313.072.505-.12.192-.217.408-.217.504 0 .096-.193.409-.435.673-.338.384-.362.6-.169.913.266.384.266.384.145-.024-.072-.216-.048-.409.073-.409.217 0 1.303-2.21 1.183-2.426-.049-.096.144-.384.386-.672.265-.289.386-.505.265-.505-.096 0-.072-.144.049-.312.145-.144.386-.72.531-1.25.41-1.297.579-1.729 1.207-3.05.483-.961.917-3.315.628-3.315-.073 0-.218.216-.362.48zm-12.892 1.105c-.193.529-.193.625.072.457.121-.072.29-.024.387.12.096.144.289.12.507-.12.217-.192.289-.457.217-.6-.242-.385-1.014-.29-1.183.143zm-92.609.721c0 .072.266.6.604 1.153.338.576.53 1.105.434 1.2-.096.097.024.097.29 0 .338-.143.41-.095.29.217-.073.192.024.504.217.649.193.168.338.456.338.648s.12.264.29.168c.169-.096.193-.072.096.096-.241.385.29 1.298.628 1.106.169-.12.217-.025.12.216-.072.24-.048.408.073.408.435 0 .241-.817-.459-2.21-.386-.745-.627-1.417-.555-1.49.073-.071 0-.143-.145-.143-.169 0-.29-.145-.29-.313 0-.408-1.013-1.37-1.424-1.37-.169 0-.217-.12-.145-.24.073-.143.025-.24-.096-.24-.145 0-.266.073-.266.145zm1.207 1.177c.338.456.338.456-.048.144-.241-.168-.435-.433-.435-.577 0-.144.025-.192.073-.144.024.048.217.313.41.577zm35.465-.096c-.242.24-.459.529-.483.625-.072.768-.266 1.129-.893 1.705-.386.36-.773.841-.845 1.081-.097.216-.338.48-.555.577-.218.072-1.014.72-1.763 1.441-.748.697-1.641 1.417-2.028 1.585-.386.193-.651.433-.603.553.048.12-.12.24-.362.288-.242.048-.7.36-1.014.673-.338.336-.725.528-.845.456-.145-.072-.242 0-.242.168 0 .409-1.207 1.13-1.617.985-.17-.072-.314 0-.314.12 0 .145-.29.36-.652.505-.386.12-1.255.577-1.955.985-.725.408-1.4.648-1.545.577-.121-.097-.194-.529-.145-.961.048-.457 0-.817-.097-.817-.41 0-.145-.817.555-1.706.676-.84 1.4-1.225 1.449-.769 0 .12.048.385.097.625.048.24-.073.505-.242.577-.265.096-.29.216-.048.576.362.553.7.6.483.048-.097-.24-.049-.336.096-.24.193.12.242-.168.193-.817-.048-.552-.241-1.105-.41-1.2-.169-.121-.193-.217-.048-.217.265 0 .265-1.513-.024-2.378-.194-.6-1.038-1.13-1.352-.817-.121.12-.362.697-.531 1.297-.266.865-.41 1.057-.846 1.01-.458-.049-.53.047-.53.888 0 .528-.097.96-.242.96-.338 0-.29.481.12 1.298.194.36.363.937.363 1.25 0 .384.145.576.434.6.362 0 .362.024-.048.192-.459.168-.459.192 0 .36.41.168.41.192.073.385-.507.288-.314 1.393.241 1.441 1.328.072 1.714.144 1.714.312 0 .12.169.024.386-.168.193-.216.459-.336.58-.264.096.072.314-.048.483-.24.169-.193.434-.36.603-.36.145 0 .531-.217.845-.481.314-.264.748-.48.99-.48.241 0 .58-.193.748-.433.17-.24.918-.793 1.642-1.25.724-.432 1.617-1.08 2.004-1.416.362-.337.796-.625.99-.65.434-.071 1.062-.6 3.524-2.978 2.559-2.498 2.873-2.979 3.018-4.492.12-1.081.072-1.225-.386-1.345-.314-.072-.676.048-.966.336zm63.106 1.417c.073.264.048.48-.072.48-.097 0-.314.361-.483.77a34.81 34.81 0 01-1.062 2.618c-.218.48-.435 1.129-.483 1.441-.073.312-.121.625-.145.697a2.56 2.56 0 00-.097.36 3.97 3.97 0 01-.217.649c-.217.576-.434 1.249-.434 1.393a1.257 1.257 0 01-.266.408c-.169.217-.169.313.024.313.145 0 .338-.193.435-.433.072-.216.507-1.177.941-2.114.459-.937.821-1.873.821-2.09 0-.216.121-.456.242-.528.144-.072.241-.36.241-.625 0-.264.145-.768.338-1.129.483-.96.748-2.69.386-2.69-.169 0-.241.192-.169.48zm-43.262.385c0 .264.073.336.145.144.073-.168.048-.384-.024-.456-.072-.097-.145.047-.121.312zm55.091.624c-.048.384.024.432.242.216.169-.168.193-.336.024-.504-.145-.144-.242-.048-.266.288zm-71.53.193c-.314.192-.024 1.2.362 1.2.362 0 3.742 3.484 3.742 3.868 0 .145.169.217.362.12.217-.072.362 0 .362.193 0 .192.362.6.797.937.434.336 1.183.96 1.666 1.393 1.158 1.105 1.569 1.417 1.858 1.417.121 0 .29.168.363.385.12.288.338.336.82.24.411-.096.531-.072.338.048-.265.168-.193.336.338.745.338.264.556.504.435.504-.121 0 .048.168.338.384.29.193.459.48.386.625-.096.144-.072.192.073.12.12-.096.458.096.748.384.265.289 1.038.913 1.714 1.37.917.648 1.255 1.033 1.448 1.753.218.89.194.937-.482 1.177-.387.12-.7.385-.7.577 0 .192-.169.336-.363.336-.434 0-.458.289-.072.673.193.192.193.36-.024.624-.362.433-.145 1.226.483 1.898.241.264.627 1.081.845 1.826.217.745.531 1.441.7 1.585.145.12.241.385.193.529-.073.168 0 .312.121.312.12 0 .289.216.362.505.096.384.072.432-.218.192-.193-.144-.338-.168-.338-.048 0 .264.507.793.749.793.193 0 .121-1.033-.145-1.994-.145-.577-.121-.625.266-.505.265.096.579.24.7.336.338.241 1.81.193 1.81-.048 0-.12.121-.144.242-.072.145.072.241-.072.241-.336 0-.24.097-.504.242-.552.434-.145.555-3.027.144-3.796-.193-.408-.265-.72-.144-.72.12 0 .338.312.507.696.193.408.579.793.869.865.313.072.555.24.555.36 0 .336.917 1.201 2.486 2.354.773.577 1.328 1.129 1.256 1.274-.097.12-.024.24.096.24.145.024.338.048.459.072.217.024 1.738 1.609 1.738 1.801 0 .097-.12.289-.289.457-.218.216-.218.288 0 .288.169 0 .289-.096.289-.216 0-.096.266-.144.604-.072.338.048.603.192.603.288 0 .096.725.889 1.618 1.706.869.841 1.762 1.729 1.979 1.946.194.24.459.432.556.432.096 0 .507.336.917.721.411.408.845.72.966.72.145 0 .241.144.241.337 0 .192.145.384.314.456.507.168-.121 1.465-.748 1.562-.387.072-.483.168-.338.36.41.528.507 1.369.145 1.369-.194 0-.338.096-.338.216 0 .313-.99.889-1.859 1.057-.58.12-.749.072-.652-.168.169-.408-.531-.961-.918-.721-.169.097-.241.073-.12-.024.096-.12-.121-.336-.483-.48-.459-.192-.724-.216-.845-.048-.555.865-2.149-.312-1.931-1.441.072-.409.024-.577-.145-.457a.41.41 0 00-.145.481c.145.384-.483.672-1.014.456-.193-.072-.483-.408-.604-.721-.144-.384-.362-.552-.555-.48-.193.072-.483-.024-.628-.216-.169-.192-.458-.337-.651-.337-.169 0-.387-.168-.459-.36-.097-.192-.29-.36-.459-.36-.169 0-.362-.168-.458-.361a.582.582 0 00-.507-.36c-.194 0-.363-.12-.363-.264 0-.12-.096-.168-.241-.096-.121.072-.241 0-.241-.192 0-.409-.652-.721-1.014-.481-.145.072-.193.024-.121-.096.097-.144-.193-.432-.628-.625-1.328-.624-2.486-2.21-2.366-3.219.025-.264-.072-.576-.217-.672-.169-.096-.217.024-.121.432.121.409.049.625-.241.745-.217.072-.314.048-.241-.072.072-.12-.073-.384-.29-.553-.242-.168-.58-.624-.748-.985-.169-.36-.411-.6-.532-.528-.144.072-.241.048-.241-.072 0-.408-1.787-2.162-2.366-2.33-.483-.144-.507-.216-.241-.553.169-.24.217-.336.12-.264-.12.096-.917-.553-1.786-1.441-.869-.865-1.69-1.562-1.811-1.514-.289.072-.941-.432-.821-.648.073-.145-.675-.937-.989-1.057-.266-.072-1.98-1.85-1.811-1.85.097 0-.217-.216-.676-.457-.459-.24-.821-.6-.772-.816.024-.192-.121-.48-.314-.649-.435-.36-.483-.817-.049-.576.145.12.097-.073-.144-.385-.821-1.153-.942-1.705-.483-2.042.458-.336 1.038-.144 1.714.529.434.432.869.408.676-.048-.338-.841-.435-1.201-.218-.913.338.456.797 0 .894-.913.12-.889-.242-2.378-.604-2.378-.121 0-.217-.168-.217-.36 0-.385-1.014-.721-1.545-.529-.242.096-.314.024-.217-.216.096-.288.024-.313-.532-.096-.362.144-.724.192-.82.12-.121-.048-.145.168-.073.48.073.409 0 .6-.241.6-.169 0-.338-.191-.362-.431-.121-1.034-.387-1.946-.556-1.85-.12.072-.144-.12-.048-.409.073-.336.024-.456-.145-.336-.193.096-.241.048-.145-.168.121-.36-.313-.817-.531-.577-.072.072.049.697.266 1.418.193.696.434 1.657.507 2.114.072.456.29.96.459 1.105.265.192.289.312.072.528-.217.216-.217.288 0 .288.169 0 .29.265.29.601 0 .336.145.6.314.6.217 0 .313.313.313.961-.024.529-.096.961-.169.961-.265 0-.458-.696-.313-1.057.072-.192-.121-.624-.411-.96-.555-.625-1.183-.841-1.183-.385 0 .12.121.24.266.24.145 0 .217.144.145.337-.073.192.072.528.338.768.482.433.627 1.057.217 1.057-.555 0-.217.529 1.931 2.907.676.745 1.207 1.417 1.207 1.49 0 .264 1.183 1.32 1.304 1.177.072-.073.145.048.145.264 0 .192.217.432.483.528.265.072.458.264.41.409-.024.12.169.36.435.504.265.168.627.48.796.697.169.24.459.432.652.432.169 0 .41.216.483.481.096.264.265.432.386.36.121-.096.217.024.217.216 0 .216.121.384.242.384.145 0 .459.217.724.481.266.264.41.48.338.48-.072 0 .29.385.797.841.507.457.99.841 1.11.841.097 0 .169.144.169.312 0 .361 1.062 1.37 1.425 1.37.12 0 .289.192.386.456.072.24.507.865.99 1.369.458.529 1.014 1.105 1.207 1.321.193.217.338.529.338.721 0 .264.048.264.241-.024.193-.288.242-.264.242.168 0 .289.12.601.289.697.169.12.218.048.097-.168-.097-.192.072-.024.362.384.29.384 1.376 1.514 2.366 2.45 1.617 1.538 2.221 1.898 2.993 1.778.097-.024.363.12.556.336.217.193.531.361.724.361.193 0 .29.096.217.24-.072.12-.048.24.073.24.12 0 .169.505.12 1.129-.072.649.024 1.802.218 2.595.362 1.609.313 2.378-.169 2.186-.194-.072-.387.12-.459.48-.097.336-.29.577-.459.505-.145-.049-.483.096-.724.336-.676.624-2.462.456-3.718-.336-.579-.361-1.135-.649-1.255-.649-.145 0-.338-.144-.435-.312-.241-.361-1.666-1.37-1.931-1.37-.121 0-.362-.216-.555-.48-.193-.264-.435-.481-.556-.481-.12 0-.434-.264-.7-.6-.265-.336-.627-.601-.821-.601-.193 0-.338-.096-.338-.24 0-.408-3.717-4.108-4.876-4.852-.628-.409-1.207-.913-1.28-1.129-.072-.217-.482-.601-.917-.889-.435-.265-.748-.673-.748-.889.048-.312-.025-.36-.266-.168-.241.192-.338.168-.41-.048-.097-.241-.242-.241-.749-.024-.555.264-.652.24-.652-.048 0-.193-.096-.361-.241-.361-.314 0-.314.889 0 1.081.145.096.435.024.652-.168.338-.264.386-.264.265.048-.072.216.025.601.218.841.338.432.362.432.217.048-.097-.312-.048-.408.145-.36a.532.532 0 01.314.456c0 .409.458.937.82.937.145 0 .194.168.121.36-.096.217 0 .361.169.361.193 0 .604.288.918.6.313.337.7.601.869.601.169 0 .458.312.627.672.169.385.604.817.99.985.362.168.676.433.676.601 0 .144.821 1.033 1.835 1.946 3.404 3.075 3.187 2.834 2.752 3.315-.217.216-.531.408-.676.408-.145 0-.41.288-.579.649-.652 1.273-1.038 1.753-1.401 1.753-.217 0-.386.217-.386.481 0 .24.048.408.121.36.048-.072.241 0 .434.144.194.192.314.192.314.024 0-.144.338-.312.724-.408 1.039-.216 1.884-1.225 2.077-2.426.096-.745.241-.985.482-.889.194.072.338.312.338.552 0 .625.821 1.226 1.594 1.177.386-.024 1.086.169 1.593.457.483.264.942.432 1.014.36.073-.072.314-.048.555.072.242.096 1.159.192 2.028.217 1.207 0 1.569-.073 1.497-.289-.072-.168.048-.312.266-.312.217 0 .386-.096.386-.192 0-.12.265-.361.603-.529.338-.168.604-.504.604-.744 0-.409.869-1.105 1.231-1.009.145.048.097-1.898-.024-2.042a.602.602 0 01-.097-.24c-.024-.097-.144-.553-.241-1.009-.121-.457-.362-1.081-.579-1.394-.58-.889 0-1.201.845-.432.362.336.796.624.965.624.145 0 .652.217 1.087.457.434.264 1.207.456 1.69.456.482 0 .989.048 1.086.12.121.072.362.048.555-.072a.587.587 0 01.676.072c.266.217.411.169.652-.144.145-.216.362-.336.459-.24.145.168.772-.456 2.172-2.162.797-.961 1.666-2.955 1.473-3.315-.097-.12-.024-.216.097-.216.144 0 .265.12.265.264 0 .12.121.168.242.096.338-.216-.121-.985-1.256-2.066-.531-.48-1.014-.937-1.11-.985-.652-.36-4.032-3.555-3.742-3.555.096 0-.121-.216-.531-.456-.821-.505-1.232-.889-2.728-2.523-.58-.6-1.135-1.057-1.256-.985-.145.096-.241.024-.241-.096 0-.144-.097-.264-.242-.264-.289 0-1.327-1.057-1.545-1.562-.072-.216-.289-.36-.482-.288-.169.072-.459-.072-.628-.312-.193-.264-.435-.384-.555-.312-.145.072-.169.024-.097-.097.097-.144-.048-.432-.314-.672-.265-.24-.483-.384-.483-.288 0 .072-.579-.433-1.279-1.105-.7-.697-1.231-1.346-1.183-1.466.072-.12 0-.144-.121-.072-.145.096-.386 0-.555-.192-.169-.192-.386-.36-.459-.36-.096 0-.7-.48-1.328-1.081-.651-.6-1.303-1.081-1.472-1.081-.145 0-.7-.409-1.231-.913-.507-.505-1.063-.985-1.232-1.033-.144-.048-.989-.793-1.859-1.634-.869-.816-1.593-1.441-1.593-1.345 0 .072-.265-.144-.603-.504-.338-.36-.676-.577-.749-.505-.072.072-.41-.096-.748-.384-1.449-1.273-3.259-3.003-5.553-5.237-1.352-1.345-2.583-2.354-2.704-2.258-.144.072-.265.048-.265-.048 0-.24-.869-.288-1.207-.072zm8.329 7.927c.072.12.024.24-.097.24-.145 0-.266-.12-.266-.24 0-.144.049-.24.097-.24.072 0 .193.096.266.24zm-6.881 3.387c0 .144-.096.168-.241.096-.121-.072-.242-.264-.242-.384 0-.144.121-.168.242-.096a.489.489 0 01.241.384zm12.554 1.417c0 .12-.048.24-.097.24-.072 0-.193-.12-.265-.24-.073-.144-.024-.24.096-.24.145 0 .266.096.266.24zm3.38 3.123c0 .12-.193.24-.411.24-.362 0-.386-.047-.072-.24.459-.288.483-.288.483 0zm9.415 21.38c0 .12-.097.241-.241.241-.121 0-.242-.121-.242-.241 0-.144.121-.24.242-.24.144 0 .241.096.241.24zm-14.486-36.37c0 .528.097 1.057.194 1.177.12.144.41.889.627 1.682.242.793.459 1.585.531 1.753.049.169.194.265.314.193.121-.072.169.072.097.336-.073.264 0 .48.145.48s.265-.264.265-.576c0-.985-1.207-4.637-1.835-5.525-.313-.457-.338-.433-.338.48zm4.103-.48c0 .192.121.288.242.216a.456.456 0 00.241-.384c0-.12-.096-.217-.241-.217-.121 0-.242.169-.242.385zm-6.542 1.345c.096.312.386.576.603.624.314.072.338-.024.169-.48-.096-.312-.386-.577-.603-.625-.314-.072-.338.024-.169.48zm-2.149.217c0 .36.169.697.362.793.459.168.459-.337 0-.961-.338-.433-.338-.433-.362.168zm57.869.263c-.145.505-.048.865.169.649.241-.264.386-1.177.193-1.177-.121 0-.29.24-.362.528zm2.727-.336c0 .12.169.313.386.385.241.096.338.024.29-.144-.121-.36-.676-.553-.676-.24zm-101.346.769c0 .336.049.456.121.288a1.264 1.264 0 000-.6c-.072-.144-.12-.024-.12.312zm55.429.288c.048.36.193.673.29.673.096 0 .145.432.096.96-.024.53.049 1.01.145 1.082.121.072.169.336.121.6-.048.265.024.48.145.48.145 0 .12.217-.049.53-.217.408-.217.552 0 .624.145.048.218.168.169.24-.048.096 0 .913.097 1.826.145 1.177.097 1.801-.121 2.234-.338.673-.217 1.561.145 1.009.097-.168.121-.409.048-.553-.072-.12-.024-.144.121-.048.169.096.29.337.29.529s.121.288.265.192c.169-.096.242.048.194.408-.049.313 0 .697.072.841.097.12.217.72.29 1.273.072.577.193 1.105.265 1.202.097.072.097-.457 0-1.178-.314-2.69-.314-3.339.024-3.459.194-.072.338.024.338.264 0 .337.073.313.435-.072.314-.36.676-.456 1.593-.408.966.072 1.135.024 1.014-.288-.096-.313-.048-.337.338-.12.58.312 1.618.312 1.811 0 .338-.529-.555-.937-1.907-.913-1.401.048-1.545.144-1.038.648.241.24.217.265-.121.144-.242-.096-.435-.264-.435-.384s-.193-.216-.434-.216c-.362 0-.507-.408-.845-2.234-.362-1.898-.507-2.979-.628-4.444-.024-.144-.145-.289-.29-.289-.169 0-.217.24-.12.601.096.336.048.6-.073.6-.145 0-.145.289 0 .77.121.432.145.96.097 1.176-.073.24-.024.48.121.577.144.072.193.264.12.384-.096.12-.024.216.145.216.217 0 .241.073.048.265-.169.168-.193.552-.048 1.129.29 1.249.266 1.417-.193 1.585-.459.192-.966-.192-.579-.432.169-.12.193-.313.048-.577-.121-.24-.29-.913-.386-1.49-.097-.6-.29-1.152-.435-1.248-.217-.144-.193-.193.048-.193.218 0 .266-.168.169-.552a7.776 7.776 0 01-.265-1.129 34.981 34.981 0 00-.362-1.802 42.737 42.737 0 01-.29-1.465.314.314 0 00-.314-.264c-.145 0-.217.288-.169.696zm-59.099-.288c0 .12.097.24.217.24.145 0 .314-.12.386-.24.073-.145-.024-.24-.217-.24-.217 0-.386.095-.386.24z" fill="#3F4E4F"/><path d="M130.267 81.796c.194.89.338 1.081.338.457 0-.24-.12-.625-.241-.817-.193-.264-.217-.168-.097.36zm-14.387.048c0 .504.458.576.724.096.193-.409.169-.48-.241-.433-.266.024-.483.168-.483.337zm57.939-.311c0 .048.169.144.362.24.193.072.362.024.362-.096 0-.144-.169-.24-.362-.24-.193 0-.362.047-.362.096zm-3.236.503c-.265.721-.144.961.266.529.29-.288.338-.48.145-.673-.169-.168-.29-.144-.411.144zm-56.876-.024c0 .072.265.409.603.769.314.336.532.72.483.84-.193.289.145 1.418.387 1.418.144 0 .144-.168.024-.432-.121-.216-.242-.817-.242-1.322-.024-.504-.096-1.008-.169-1.129-.145-.24-1.086-.336-1.086-.144zm-40.679.505c.097.264.242.672.29.888.073.24.266.433.459.433s.265.144.169.408c-.12.288-.073.337.169.192.241-.144.29-.096.169.192-.145.385.096.553.362.265.193-.192-.531-1.49-1.231-2.234-.459-.505-.531-.529-.387-.144zm28.776-.217c-.169.169.604 2.259.845 2.259.097 0 .097.168.024.408-.096.264-.072.337.121.216.169-.096.29-.024.29.193 0 .672.024.744.434 1.177.362.408.362.408-.024.264-.459-.168-.531.072-.169.625.217.312.266.312.483 0 .29-.457.314-1.13.024-1.298-.121-.072-.29-.528-.362-1.009-.266-1.32-.676-2.066-1.062-1.897-.29.096-.314.072-.073-.216.435-.505-.072-1.178-.531-.721zm14.607.169c-.217.24-.169.48.145.913.217.312.386.792.338 1.056l-.048.48.217-.48c.097-.264.097-.792 0-1.177-.121-.384-.145-.792-.072-.888.193-.337-.29-.24-.58.096zm-46.328.889c.145.384.41.72.58.72.338 0 .145-.672-.314-1.153-.483-.456-.555-.336-.266.433zm99.897-.097c0 .264.073.336.145.144.072-.168.048-.384-.024-.456-.073-.096-.145.048-.121.312zm-99.125 1.298c.073.12.194.24.266.24.048 0 .097-.12.097-.24 0-.144-.121-.24-.266-.24-.12 0-.169.096-.097.24zm5.505.552c.313 1.153 1.11 2.81 1.4 2.81.193 0 .193-.095-.024-.36a1.92 1.92 0 01-.362-.912 17.101 17.101 0 00-.097-.841c0-.168-.12-.24-.266-.168-.12.072-.241-.072-.241-.337 0-.264-.12-.552-.266-.648-.193-.12-.241.024-.144.456zm11.684-.384c-.242.216-.217.552.024.552.12 0 .217-.168.217-.36 0-.408-.024-.432-.241-.192zm-13.52.697c-.217.24.097.816.46.816.385 0 .385-.048.192-.576-.145-.409-.386-.48-.652-.24zm26.871.864c0 .336.145.697.314.769.193.096.217.192.024.264-.145.072-.218.408-.145.72.048.337.193.53.314.457.12-.072.217.168.193.553-.073.816.217 1.801.603 2.041.194.145.169.193-.024.193-.169 0-.314.12-.314.264 0 .144.169.192.411.12.241-.096.338-.096.241 0-.289.288-1.931.793-2.148.673-.097-.072-.193-.024-.193.12 0 .12-.314.288-.7.384-.797.168-1.715 1.13-1.715 1.802 0 .504.459.648.87.24.168-.168.24.216.24 1.105 0 1.201.097 1.441.701 1.898.628.504 1.135.624 1.424.336.073-.072.676-.096 1.352-.072.725.048 1.207-.048 1.207-.192 0-.144.218-.192.459-.12.386.096.507-.024.555-.529.073-.672.073-.696-.772-2.474-.29-.625-.483-1.297-.411-1.49.097-.216.024-.384-.096-.384-.145 0-.217-.192-.169-.432.072-.264-.048-.84-.29-1.297-.217-.457-.386-1.105-.362-1.418.024-.312-.097-.865-.266-1.225-.193-.36-.338-.84-.338-1.08 0-.241-.217-.77-.482-1.154l-.483-.72v.648zm-25.929.913c.073.457.217.937.362 1.057.338.36.242-.336-.145-1.177l-.338-.72.121.84zm47.896.121c0 .072.097.312.217.552.121.216.338.673.483 1.009.242.529.242.505.145-.36-.048-.529-.097-.985-.121-.985-.024-.12-.724-.313-.724-.216zm-19.53.673c-.193.264-.145.456.193.864.266.313.411.697.363.865-.073.168-.025.385.12.457.266.168.29-.793.024-1.177-.096-.145-.144-.48-.12-.793.048-.6-.169-.673-.58-.216zm-25.929.888c.073.264.217.48.362.48.121 0 .097-.216-.048-.48-.145-.264-.29-.48-.338-.48-.048 0-.048.216.024.48zm48.477.48c-.072.12-.024.24.097.24.145 0 .266-.12.266-.24 0-.144-.049-.24-.097-.24-.072 0-.193.096-.266.24zm-2.365.649c-.097.072-.169.264-.169.408 0 .144.121.12.29-.048.145-.144.217-.336.169-.408-.073-.073-.218-.049-.29.048zm-19.192 1.153c0 .384.048.528.12.288.048-.216.048-.553 0-.72-.072-.145-.12.023-.12.432zm21.606-.216c.145.36.555.456.555.12 0-.12-.169-.264-.338-.336-.241-.096-.313-.024-.217.216z" fill="#3F4E4F"/><path d="M98.98 92.15c0 .336.12.576.265.528.145-.048.241-.168.241-.264-.024-.096-.024-.336-.024-.528s-.097-.36-.241-.36c-.121 0-.242.288-.242.624zm32.663-.241a.655.655 0 00.145.649c.193.192.265.096.265-.385 0-.72-.169-.84-.41-.264zm-4.778.313c-.073.12-.024.288.121.384.12.072.241-.024.241-.216 0-.433-.145-.505-.362-.168zm-30.25 1.105c.025.48.194.985.339 1.105.169.144.265.456.217.72-.073.289 0 .41.169.313.193-.12.217.072.12.576-.096.409-.048.817.073.89.145.071.241.336.241.552.025.432.652 1.393.821 1.225.048-.048-.169-1.081-.507-2.258-.314-1.201-.7-2.57-.845-3.075-.314-1.129-.7-1.153-.627-.048zm35.197.096c0 .264.121.552.242.624.145.097.241-.12.241-.456s-.096-.625-.241-.625c-.121 0-.242.217-.242.457zm-40.074.961c0 .12.169.36.41.528.362.313.362.289.097-.216-.29-.552-.507-.672-.507-.312zm-17.744.936c-.096.097-.241.169-.314.169-.096.024-.41.144-.7.312-.313.168-.555.192-.603.048-.048-.144-.338 0-.676.289-.7.6-1.062.768-1.859.744-.483-.024-.531.072-.386.625.145.624.145.624-.362.192-.483-.432-.483-.432-.628.024-.097.264-.58.913-1.11 1.465-.532.553-.966 1.129-.966 1.25 0 .144-.121.216-.29.168-.169-.072-.483.264-.724.696-.483.889-.942 4.228-.628 4.685.314.504.217 1.561-.145 1.705-.53.217-.193 2.331.362 2.331.266 0 .652.288 1.618 1.201.362.312.797.552.966.528.144-.048.29.048.29.216 0 .144.192.217.482.144.266-.072.483-.048.483.048 0 .097.241.169.507.193.29.024.7.216.917.408.242.216.556.384.7.384.17 0 .29.097.29.241 0 .12.145.24.338.24.17 0 .41.24.507.552.072.289.217.409.266.241.169-.409 1.086-.024 1.907.792.483.481.7.577.845.337.12-.217.217-.217.362-.024.072.168.362.216.627.144.29-.096.508-.024.604.216.072.216.241.312.362.24.12-.072.218-.024.218.12 0 .12.217.313.482.385.266.072.483.312.483.48 0 .192.17.433.41.553.363.216.483.624.532 1.777.024.24.193.433.386.433s.459.216.603.48c.145.264.363.433.507.36.121-.096.218-.048.218.097 0 .12.507.216 1.159.192.82-.048 1.11.048 1.062.264-.024.192.048.264.217.144.169-.096.435.024.628.264.169.265.314.385.314.289 0-.096.217-.072.482.072.266.144.483.432.483.624s.097.313.193.24c.314-.192 1.28.577 1.11.865-.096.12.073.553.363.937.266.361.507.793.507.937 0 .12.193.24.434.24.242 0 .556.12.725.289.193.192.362.192.627-.024.194-.169.46-.241.604-.169.362.241 1.038-.144.893-.504-.12-.264-.024-.312.386-.168.41.12.483.072.363-.24-.17-.409.193-.529.434-.145.362.577 1.738.072 3.356-1.201.241-.192.796-.624 1.207-.961.942-.744 1.738-1.201 2.148-1.201.17 0 .652.385 1.111.841.435.456.942.841 1.135.841.193 0 .41.168.483.36.072.192.507.409.965.505.435.072.773.216.749.312-.025.072.072.168.193.216.145.048.41.24.627.433.218.192.459.264.532.168.096-.072.169-.024.169.12s.169.216.362.144c.193-.072.531.024.724.24.217.216.531.384.7.384.169 0 .555.265.869.601.314.336.749.601.99.601.217 0 .459.168.555.36.073.192.29.36.507.36.193 0 .362.12.362.265 0 .144.218.192.507.096.362-.121.459-.096.362.096-.12.192 0 .192.411.048.338-.144.652-.168.724-.096.169.144 1.835-2.114 1.859-2.523 0-.168.193-.096.483.192.265.265.772.481 1.159.505.362 0 .845.048 1.062.096.241.048.483-.024.579-.144.073-.12.217-.168.338-.096.483.312.483-.457 0-.961-.386-.408-.748-.553-1.231-.505-.676.073-.821-.048-3.814-3.146-.628-.673-2.101-1.37-2.415-1.154-.12.049-.362-.072-.531-.288-.289-.336-.289-.384.024-.192.194.096-.024-.24-.507-.745-2.027-2.234-4.152-5.14-4.2-5.741 0-.144-.507-.769-1.135-1.417-.603-.649-1.062-1.322-.99-1.514.073-.168.024-.312-.096-.312-.145 0-.386-.432-.555-.961-.242-.697-.387-.913-.58-.721-.193.193-.169.313.097.481.193.12.265.288.169.384-.097.096-.314-.024-.507-.264-.169-.24-.435-.36-.58-.264-.169.096-.29.072-.29-.048 0-.361-1.4-.481-1.544-.144-.17.456.12 1.297.458 1.297.242 0 2.535 2.258 2.535 2.522 0 .048.314.432.7.841.435.48.652.937.58 1.225-.073.288 0 .456.193.456.289 0 .289.048 0 .217-.242.168-.266.312-.049.648.145.264.266.361.266.264 0-.096.29.121.628.481s.531.504.434.312c-.096-.216.049-.168.411.144a50.6 50.6 0 001.4 1.201c.459.385 1.014.865 1.231 1.081.217.193.531.313.676.265.169-.048.29.048.29.24 0 .312.941 1.057 1.231.985.072-.024.41.384.724.889.314.528.773.961 1.014.961.242 0 .362.12.29.24-.097.144.29.672.845 1.225.531.528.917 1.081.845 1.201-.097.12-.242.168-.362.096-.121-.072-.604.24-1.063.721-.893.913-1.279 1.033-1.496.504-.073-.192-.507-.528-.966-.744-.459-.217-.821-.481-.821-.625 0-.144-.096-.192-.217-.12-.314.192-.99-.096-.99-.432 0-.145-.265-.289-.603-.289-.338-.024-.604.048-.604.192 0 .121-.121.145-.266.072-.144-.096-.193-.216-.12-.288.169-.168-.797-.937-1.473-1.129-.386-.12-.555-.072-.555.144 0 .168-.169.048-.386-.24-.194-.288-.483-.48-.604-.408-.121.096-.217.048-.217-.096 0-.145-.145-.193-.314-.121-.241.097-.29-.072-.217-.6.096-.649.169-.697.579-.481.604.313 1.787.049 2.342-.528.434-.48.434-1.537 0-1.802-.338-.216-.242-.648.121-.504.265.096.265.024.048-.433-.242-.528-1.811-1.441-2.052-1.201-.049.072-.121.577-.121 1.129-.024.985-.072 1.033-.869 1.153-1.376.241-1.521.433-.869 1.13.434.456.555.792.459 1.369-.145.961-.314 1.129-.314.312 0-.721-1.183-1.706-1.787-1.465-.217.072-.386.024-.386-.144 0-.145.12-.193.266-.097.193.121.217-.12.096-.792a3.456 3.456 0 01.266-1.946c.314-.817.338-1.081.096-1.369-.169-.217-.241-.433-.145-.529.073-.072-.048-.36-.265-.624-.242-.265-.29-.409-.12-.313.144.096.289.048.289-.096 0-.144-.242-.36-.531-.48-.314-.12-.41-.216-.242-.216.435-.024.362-.601-.217-1.322-.266-.36-.435-.792-.362-.985.072-.192.048-.36-.073-.36-.12 0-.338-.336-.53-.745-.17-.432-.556-1.057-.87-1.393-1.472-1.633-2.728-2.907-2.728-2.762 0 .072-.29-.097-.627-.361-.363-.288-.797-.504-.99-.504-.17 0-.386-.168-.459-.361-.096-.192-.265-.36-.434-.36-.145 0-.58-.336-.966-.745-.41-.384-.99-.768-1.328-.864-.603-.145-1.255-.601-1.931-1.346-.193-.216-.507-.408-.676-.408-.17 0-.435-.216-.604-.481-.169-.264-.434-.48-.603-.48-.17 0-.604-.384-.966-.841-.41-.504-.724-.72-.82-.552-.122.168-.387.048-.797-.385-.363-.336-.797-.624-.99-.624-.193 0-.362-.12-.362-.24 0-.145-.58-.529-1.256-.841-1.352-.649-1.859-.913-2.92-1.634-.677-.432-2.874-.744-3.188-.456zm1.473 1.514c.097.192.217.168.362-.048.17-.24.266-.264.41-.072.097.144.507.36.942.433.41.096.82.312.87.504.168.408-.532.312-.822-.144-.169-.264-.217-.264-.217 0 0 .168-.145.264-.362.168-.217-.072-.362 0-.362.216 0 .337-.314.48-.821.385-.12-.024-.145.288-.072.696.096.433.048.72-.097.72-.145 0-.193-.095-.12-.191.192-.313-.773-1.25-1.28-1.25-.604 0-.821.937-.386 1.61.458.673 1.907.697 2.558.048.266-.264.604-.384.846-.288.217.072.458.024.555-.096.217-.36 1.062-.577 1.424-.337.17.096.362.505.435.889.096.625 0 .745-1.038 1.297-1.16.601-1.763 1.081-3.863 3.051-.58.577-1.159 1.033-1.28 1.033-.12 0-.265.192-.338.409-.096.24-.579.888-1.134 1.441-.942.985-1.4 1.321-1.063.793.17-.289-.555-1.297-1.81-2.547-.604-.6-1.038-.816-1.618-.816-.627 0-.869-.121-1.014-.553-.12-.288-.12-.697 0-.937.121-.216.218-.672.218-1.009 0-.336.12-.624.241-.624.145 0 .242-.12.242-.265 0-.432 1.327-1.825 1.641-1.705.17.048.29-.048.29-.24 0-.289.676-.77 2.245-1.562.362-.192.604-.432.555-.528-.072-.096.17-.144.556-.072.362.048.772-.048.917-.24.338-.385 2.173-.505 2.39-.169zm4.683 2.955c0 .072-.096.192-.24.264-.122.072-.242.024-.242-.096 0-.144.12-.264.241-.264.145 0 .241.048.241.096zm2.656 1.057c0 .12.386.336.845.528.459.169.773.409.676.529-.072.12.097.384.386.576.29.193.507.529.507.721 0 .192.12.336.266.336.145 0 .193-.216.096-.48-.193-.625-.024-.601.99.168 1.038.769 1.014 1.442-.072 2.114-.435.264-.725.625-.676.793.072.168.024.264-.073.192-.12-.072-.627.168-1.134.505l-.918.624.145-.576.145-.577-.459.601c-.265.336-.483.72-.483.84 0 .145-.24.265-.53.241-.314 0-.58.096-.604.192-.12.432-.821.913-1.087.744-.241-.12-.241-.096-.024.145.242.264.17.432-.338.864-.362.313-.724.505-.82.433-.097-.048-.242.192-.314.504-.097.337-.266.553-.362.481-.121-.072-.29.192-.387.6-.096.385-.265.721-.41.721-.145 0-.193.216-.12.48.072.265.023.433-.097.337-.121-.072-.218.096-.218.36 0 .288-.096.505-.217.505-.338 0-.507-1.057-.29-1.874.121-.409.17-.793.097-.865-.072-.072 0-.456.12-.865.145-.408.17-.672.049-.6-.12.072-.338-.096-.483-.385-.241-.408-.217-.48.048-.336.194.12.194.072-.048-.168-.555-.529-1.642-.937-1.81-.649-.097.12-.266.144-.411.072-.12-.096-.652-.024-1.159.144-.652.217-.965.481-1.086.913-.073.313-.097.649-.024.721.145.12-.58.745-.87.769-.12 0-.192-.169-.192-.385 0-.192-.121-.288-.266-.192-.193.096-.193 0 0-.36.169-.264.217-.505.12-.505-.096 0 .725-.84 1.811-1.873 1.063-1.033 1.956-2.018 1.956-2.162 0-.169.12-.289.265-.289.145 0 .628-.36 1.063-.816.434-.457 1.4-1.13 2.148-1.49.748-.36 1.352-.745 1.352-.841 0-.096.241-.264.555-.36.29-.096.845-.408 1.207-.721.7-.576 1.135-.72 1.135-.384zm9.053 6.054c.531.336 1.014.6 1.087.6.072-.024.096.12.048.264-.024.169.145.265.362.241.266 0 .41.12.362.312-.048.216.072.264.362.168.218-.096.338-.096.242 0-.097.096.12.481.483.865.337.36.555.745.458.841-.096.12-.314 0-.483-.241-.314-.384-1.014-.6-.772-.216.048.096-.12.216-.386.216-.7.073-.797.241-.41.721.216.264.24.336.047.216-.193-.096-.53.048-.845.337-.313.264-.579.384-.627.264-.097-.288-.773-.072-.773.264 0 .12.12.144.29.048.169-.096.193-.072.096.12-.096.144-.29.216-.41.12-.12-.072-.41 0-.603.169-.314.24-.41.24-.58 0-.12-.241-.265-.121-.434.36-.145.384-.266.552-.266.384a.36.36 0 00-.338-.288c-.362 0-1.014.961-.942 1.369.073.289-.217.409-.844.337-.17-.024-.218.168-.145.456.096.336 0 .48-.266.48-.217 0-.507.289-.627.649-.145.384-.387.937-.556 1.249-.145.312-.29 1.201-.29 1.97 0 .793-.024 1.417-.048 1.417-.072 0-1.859-.985-1.955-1.081-.049-.024.096-.24.29-.432.386-.384.506-1.105.434-2.594-.024-.553-.29-1.13-.772-1.658-.387-.432-.749-.889-.773-1.009-.048-.096-.652-.264-1.352-.36-1.135-.12-1.255-.192-1.255-.721 0-.456.096-.577.386-.456.193.072.29.048.217-.096-.072-.145.049-.241.266-.241.241 0 .338-.072.265-.144-.096-.096.073-.48.362-.865.387-.576.628-.696 1.183-.624.58.096.676.024.58-.288-.145-.433 1.255-1.754 1.617-1.538.121.072.17 0 .145-.192-.048-.192.097-.288.386-.24.242.048.604-.144.797-.409.193-.288.459-.456.58-.384.12.096.217.048.217-.096 0-.144.169-.192.362-.12.217.096.362 0 .362-.24 0-.217.169-.385.362-.385.459 0 1.376-.985 1.231-1.345-.241-.625.17-.481 1.014.36.483.481 1.328 1.153 1.86 1.466zm-21.751 3.026c.217.577.169.649-.218.241-.41-.409-.458-.625-.145-.625.121 0 .29.168.363.384zm26.58 1.994c.217.481.507 1.033.603 1.249.12.217.338.865.507 1.442.169.576.314 1.105.338 1.177.024.072.169.432.338.817.41.985.531 2.234.266 2.858-.17.433-.218.457-.218.096-.024-.24-.145-.36-.265-.288-.145.096-.218.072-.193-.048.096-.336-.845-2.57-1.304-3.051-.217-.24-.362-.528-.314-.624.073-.096-.048-.313-.217-.457-.242-.192-.386-.216-.507-.024-.073.12-.338.24-.604.24-.507 0-.845.625-.41.817.217.072.193.192-.073.361-.193.144-.241.264-.12.264.145 0 .265.216.29.504.048.577 2.727 3.123 3.065 2.931.121-.096.025-.24-.241-.36-.434-.193-.434-.193.024-.12.724.096.58.744-.169.84-.41.048-.676.217-.676.433 0 .192-.096.312-.217.216-.12-.072-.314-.024-.386.12-.097.144-.362.192-.628.12-.29-.096-.507-.024-.604.216-.072.193-.29.289-.507.217-.29-.121-.337-.024-.217.36.12.336.024.648-.314.985-.265.264-.507.36-.555.216-.072-.192-.265-.168-.628.024-.386.216-.53.216-.53 0 0-.144-.17-.216-.339-.144-.386.144-.29-.384.145-.961.17-.192.048-.553-.314-1.081-1.014-1.417-1.448-1.706-2.559-1.754-.58-.024-1.134-.144-1.23-.24-.097-.12.047-.12.313-.024.362.12.41.096.217-.096-.362-.36-1.303-.072-1.303.384 0 .193-.097.337-.242.337-.12 0-.169.144-.096.336.072.168-.025.384-.242.456a.376.376 0 01-.483-.216c-.072-.192-.024-.336.097-.336.12 0 .217-.24.193-.553-.048-.6 1.352-3.603 1.593-3.363.073.072.145-.024.145-.264 0-.216.12-.336.242-.264.145.072.241.024.241-.096 0-.144-.096-.265-.241-.265-.121 0-.242-.12-.242-.288 0-.144.218-.072.507.192.435.385.483.385.435.072-.121-.48 1.159-1.729 1.52-1.513.146.096.339 0 .46-.168a.752.752 0 01.506-.36c.773-.049.87-.121.99-.601.097-.336.266-.481.507-.384.217.096.483-.024.604-.265.144-.24.265-.288.265-.12 0 .168.193.313.435.313.507 0 1.352-.889.965-1.009-.169-.072-.193-.217-.096-.385.265-.432.965.12 1.472 1.129zm-23.78-.456c0 .12-.048.24-.097.24-.072 0-.193-.12-.265-.24-.073-.144-.024-.24.096-.24.145 0 .266.096.266.24zm22.572 10.329c.073.121.025.241-.096.241-.145 0-.266-.12-.266-.241 0-.144.049-.24.097-.24.072 0 .193.096.265.24zm13.158 4.613c0 .096-.169.192-.363.192-.193 0-.362-.096-.362-.192 0-.12.169-.216.362-.216.194 0 .363.096.363.216z" fill="#3F4E4F"/><path d="M78.217 99.43c0 .12.17.263.338.335.242.097.314.025.217-.216-.144-.36-.555-.456-.555-.12zm3.839 3.074c-.458.12-.338 1.513.145 1.513.17 0 .387.168.459.385.072.192.241.312.362.216.12-.072.29-.024.386.12.218.36.556.288.821-.192.314-.577.073-1.49-.386-1.49-.17 0-.58-.144-.87-.312-.289-.192-.7-.288-.917-.24zm-2.148 1.705c0 .432.096.745.217.648.29-.168.628.817.725 2.186.024.289.99.649.99.361 0-.072-.242-.288-.508-.481-.338-.192-.434-.36-.265-.48.386-.24-.17-1.946-.604-1.946-.193 0-.29-.096-.217-.192.048-.096.024-.336-.12-.529-.146-.264-.218-.144-.218.433zm4.732.192c-.096.216-.096.456-.024.528.048.073.17-.072.266-.288.096-.216.096-.456.024-.528-.049-.072-.17.072-.266.288zm-7.966 2.571c.073.24.218.361.29.288.073-.072 0-.264-.169-.432-.241-.216-.266-.192-.12.144zm.579 1.129c0 .12.12.24.266.24.12 0 .169-.12.096-.24-.072-.145-.193-.241-.265-.241-.048 0-.097.096-.097.241zm.362.961c.072.12.193.24.265.24.049 0 .097-.12.097-.24 0-.145-.12-.241-.266-.241-.12 0-.169.096-.096.241zm11.033-2.043c.073.313.024.529-.072.457-.58-.361-.097.504.772 1.369.7.697 1.087.913 1.449.817.241-.096.458-.048.458.096 0 .144.17.192.363.12.482-.192.458-.384-.121-1.009-.266-.288-.483-.6-.483-.721 0-.36-1.593-1.729-2.028-1.729-.338 0-.41.144-.338.6zm3.717-11.482c-.29.313-.12.745.58 1.466.41.432.724.984.724 1.249 0 .384-.12.456-.724.312-.942-.168-.99.433-.097 1.25.58.552.604.6.242 1.128-.218.289-.386.625-.386.721 0 .264 1.69 1.874 1.955 1.874.12 0 .217.144.217.336 0 .192.338.577.724.865.41.288.725.456.725.36 0-.072.217-.024.458.096.338.192.532.168.749-.096.145-.168.434-.264.627-.192.41.144.41.168.097-.841-.193-.72-.169-.769.145-.504.314.264.338.216.217-.313-.096-.336-.048-.696.097-.768.145-.096.193-.481.096-.913-.096-.529-.072-.697.145-.577.145.096.218.289.145.409-.097.12.024.216.217.216s.41-.096.483-.192c.12-.216-.7-1.009-1.038-1.009-.12 0-.266-.168-.314-.385-.072-.336-.145-.312-.7.097-.483.384-.628.408-.628.144a.33.33 0 01.338-.337c.676 0 .194-.816-.53-.913l-.484-.072.483.409c.531.432.604.432-1.134-.048-.242-.072-.435-.24-.435-.36s-.12-.217-.265-.217c-.121 0-.17.12-.097.264.097.145-.048.12-.314-.048-.29-.168-.58-.576-.652-.912-.096-.337-.362-.89-.627-1.274-.266-.36-.435-.768-.362-.888.168-.24-.46-.553-.677-.337zm5.65 5.549c0 .313-.29.529-.531.385-.242-.144-.025-.577.313-.577.121 0 .218.096.218.192zm11.949-2.113c.072.12.193.24.266.24.048 0 .096-.12.096-.24 0-.144-.121-.24-.265-.24-.121 0-.169.096-.097.24zm.893.817c0 .456.145.888.314.96.193.072.265.312.193.601-.072.312-.024.504.145.504.169 0 .217.12.121.264-.097.169-.025.241.169.169.362-.121.531-1.394.193-1.394-.097 0-.266-.24-.362-.552-.097-.288-.29-.72-.459-.961-.29-.409-.314-.36-.314.408zm-2.195 1.584c.217.12.483.528.579.889.121.504.194.576.362.312.145-.24.194-.144.145.36-.048.433.073.841.314 1.033.217.168.242.264.097.168-.218-.096-.266-.024-.169.217.072.216.241.384.362.384s.145.336.048.721c-.121.648-.072.72.314.576.41-.144.41-.12-.024.216-.459.337-.459.385-.048.817.458.529.555.913.144.649-.193-.096-.193 0 0 .36.169.288.218.625.145.745-.072.12 0 .288.145.384.169.096.217.072.145-.072-.097-.144-.024-.312.145-.384.386-.145.265-1.85-.121-1.85-.145 0-.193-.168-.096-.36.193-.505-.701-4.517-1.039-4.637a.418.418 0 01-.265-.36c0-.168-.362-.312-.797-.336-.579-.048-.676 0-.386.168zm-19.581.36c0 .193.097.361.242.361.12 0 .169-.168.096-.361-.096-.192-.193-.36-.241-.36-.049 0-.097.168-.097.36zm23.081.53c-.265.264-.145.864.29 1.345.29.36.338.504.121.576-.169.072-.314.217-.314.361s.169.192.362.096c.41-.144.507.456.121.696-.121.072-.242.265-.242.385 0 .144.121.168.266.072.193-.12.241.072.169.6-.073.433-.049.817.048.865.072.048.121.553.096 1.105-.072 1.586.845 3.195 1.594 2.739.096-.048.362.096.603.36.363.384.628.457 1.304.336.459-.096.966-.288 1.111-.432.627-.625 1.134-1.609.989-1.946-.072-.216-.048-.312.097-.24.145.072.241-.024.241-.216 0-.216-.12-.385-.265-.385-.145 0-.193-.216-.097-.48.314-.985-1.786-2.907-2.945-2.691-.169.049-.362-.312-.459-.792-.072-.457-.265-.913-.41-1.009-.145-.096-.193 0-.097.264.097.24.073.36-.072.264-.145-.072-.242-.312-.242-.504s-.12-.336-.265-.336c-.169 0-.193.168-.097.408.097.24.193.576.193.745 0 .168.145.264.338.192.169-.072.314-.024.314.096 0 .144-.096.24-.217.24s-.29.288-.362.625c-.097.336-.29.576-.411.528-.313-.096-.845-1.561-1.062-2.883-.169-.912-.41-1.273-.7-.984zm-9.125 1.633c.145.264.434.697.652.961.362.48.386.48.314-.096-.049-.312-.338-.745-.652-.961-.556-.36-.58-.36-.314.096zm27.495-.072c.145.168.314.792.41 1.369.145.937.121 1.033-.265.889-.386-.12-.362-.096.024.216.338.264.531.288.652.096.096-.192.265-.072.483.288.241.481.241.529-.049.313-.193-.145-.555-.193-.796-.097-.362.121-.387.217-.169.361.217.12.241.24.072.336-.169.096-.193.288-.048.505.169.288.265.24.434-.217.145-.432.266-.504.411-.288.096.192.072.384-.073.481-.144.096-.241.384-.217.672 0 .288.097.481.193.409.097-.048.218.144.29.408.097.312.241.432.434.312.194-.12.242-.072.097.144-.097.169-.048.385.145.505.265.168.241.216-.097.216-.314 0-.386.144-.314.625.073.36.194.696.29.792.097.072.097-.048.024-.288-.096-.216-.048-.408.073-.408.145 0 .241.072.265.168.097 1.273.193 1.802.314 1.922.073.096.145.024.145-.144 0-.193.169-.241.483-.145.386.12.459.048.41-.336-.096-.625-.41-.961-.41-.432 0 .24-.097.408-.242.408-.386 0-.265-1.009.194-1.513.386-.457.386-.481-.025-.337-.338.12-.386.048-.265-.408.072-.312.024-.649-.121-.721a.42.42 0 01-.096-.504c.072-.216 0-.529-.169-.721-.169-.192-.218-.36-.121-.36.096 0 .048-.168-.121-.361-.169-.192-.338-.696-.386-1.081-.048-.384-.314-1.105-.579-1.609-.266-.504-.483-1.033-.483-1.177 0-.168-.169-.36-.387-.433-.555-.216-.676-.168-.41.145zm-26.241 1.681c.024 1.105 1.207 1.97 1.762 1.273.097-.144.169-.024.121.216-.048.313.145.601.531.793.338.168.507.312.386.312s-.072.169.097.361c.145.192.217.456.145.576-.097.12.096.409.386.601.603.432 1.014.504.797.144-.266-.432-.338-1.201-.097-1.201.121 0 .217-.12.217-.264 0-.145-.193-.193-.458-.096-.363.096-.435.024-.387-.481.073-.456-.024-.6-.386-.6-.241 0-.459-.097-.459-.241 0-.12.169-.144.411-.072.241.096.338.048.241-.096-.096-.144-.459-.312-.821-.384-.386-.072-.965-.409-1.327-.745-.797-.769-1.159-.793-1.159-.096zm1.086.697c.266.408.048.432-.459.072-.41-.289-.41-.337-.096-.337.217 0 .483.121.555.265zm-2.414-.024c-.096.144-.048.385.073.553.12.168.362.696.507 1.177.169.504.386.913.482.913.097 0 .169.192.194.408.048.841.338 1.874.603 2.114.169.168.193-.024.097-.6-.145-.697-.121-.769.12-.385.194.337.218.673.025 1.273-.218.673-.194.769.072.553.241-.192.338-.192.41.048.073.168.121-.096.145-.577.024-.504-.072-.96-.193-1.033-.145-.072-.241-.336-.241-.552 0-.721-1.038-2.931-1.401-2.931-.193 0-.289-.144-.217-.336.169-.457-.434-1.009-.676-.625zm31.263.288c0 .024.169.601.362 1.249.193.625.314 1.25.242 1.346-.073.096.048.312.241.48.193.168.362.433.362.577 0 .144-.121.096-.241-.096-.314-.481-.29-.096.024 1.057.145.504.29 1.129.338 1.393.121.624.579 1.153.99 1.153.362 0 .7-1.009.507-1.513-.073-.193.072-.481.338-.673.579-.408.579-.817-.025-1.417-.555-.553-1.11-.625-1.279-.193-.169.481-.29.217-.797-1.585-.265-.913-.603-1.706-.772-1.778-.145-.048-.29-.048-.29 0zm-33.435 1.634c-.073.12-.024.24.096.24.145 0 .266-.12.266-.24 0-.145-.048-.241-.097-.241-.072 0-.193.096-.265.241zm7.048 2.69c.169.697.531 1.153.893 1.153.145 0 .049-.168-.193-.36-.265-.192-.362-.36-.217-.36s.217-.217.145-.481c-.072-.264-.266-.48-.435-.48-.217 0-.265.192-.193.528zm.725 1.874c.072.264.169.481.217.481.048 0 .097-.217.097-.481s-.097-.48-.218-.48c-.12 0-.168.216-.096.48zm-3.307.432c0 .12.217.456.483.769.531.624.579.552.241-.337-.217-.576-.724-.864-.724-.432zm5.311 1.13c0 .192-.121.336-.266.288-.41-.072-.772 1.177-.603 2.066.217 1.081 1.424 2.33 2.1 2.21.748-.144 1.086-.553 1.376-1.61.193-.72.169-1.057-.217-1.801-.604-1.201-2.39-2.066-2.39-1.153zm16.489 3.41a.471.471 0 00-.313.433c0 .168-.169.432-.363.6-.289.241-.289.361.049.865.362.553.41.577.82.192.242-.216.387-.48.338-.576-.072-.096.121-.433.387-.745.458-.528.458-.576.048-.721-.507-.216-.579-.216-.966-.048zm-20.496 3.628c-.193.312-.145.576.193 1.129.241.384.507.888.579 1.129.145.408 1.062.768 1.062.408 0-.12-.12-.216-.265-.216-.121 0-.169-.12-.097-.24.073-.145.024-.241-.12-.241-.145 0-.242-.144-.218-.312.073-.456-.289-1.561-.603-1.826-.193-.168-.362-.12-.531.169zm10.695.312c-.217.12-.507.192-.627.12-.121-.072-.194.144-.194.48 0 .721.628 1.057.942.505.121-.24.434-.409.676-.409.579 0 .652-.6.096-.816-.458-.168-.362-.192-.893.12zm-2.44.817c.073.385.194.793.29.937.073.144.193.481.217.721.121.672.314.792.314.216 0-.577-.458-2.018-.748-2.33-.121-.12-.145.096-.073.456zm-5.769.721a1.177 1.177 0 00-.411.841c0 .457.049.505.362.24.218-.168.338-.456.266-.648-.072-.168-.024-.313.097-.313.144 0 .241.169.241.361 0 .192.121.36.241.36.363 0 .29-.889-.072-1.033-.169-.072-.507.024-.724.192zm-1.015 1.561c.073.12.193.24.266.24.048 0 .096-.12.096-.24 0-.144-.12-.24-.265-.24-.121 0-.169.096-.097.24z" fill="#3F4E4F"/></svg>